<svg id="Layer_1" data-name="Layer 1" xmlns="http://www.w3.org/2000/svg" viewBox="0 0 100 100"><defs><style>.cls-1{fill:#163955;stroke:#163955;stroke-miterlimit:10;}.cls-2{fill:#bf8d36;}.cls-3{fill:#f19b1f;}</style></defs><title>Alerts-s</title><path class="cls-1" d="M74.2,78.14H25.8a6.37,6.37,0,0,1,0-12.73,2.41,2.41,0,0,0,1.82-.74c1.86-1.9,1.76-7,1.72-9.12,0-.32,0-.6,0-.82V42.46a20.68,20.68,0,0,1,41.36,0V54.73c0,.22,0,.5,0,.82,0,2.16-.15,7.22,1.72,9.12a2.39,2.39,0,0,0,1.81.74,6.37,6.37,0,0,1,0,12.73ZM50,23.6A18.88,18.88,0,0,0,31.14,42.46V54.73c0,.21,0,.48,0,.78.06,2.6.16,8-2.23,10.43a4.2,4.2,0,0,1-3.12,1.29,4.55,4.55,0,0,0,0,9.09H74.2a4.55,4.55,0,1,0,0-9.09,4.16,4.16,0,0,1-3.11-1.29c-2.4-2.44-2.29-7.83-2.24-10.43,0-.3,0-.57,0-.78V42.46A18.88,18.88,0,0,0,50,23.6Z"/><path class="cls-1" d="M50,87.86A7.83,7.83,0,0,1,42.18,80a7.7,7.7,0,0,1,.68-3.18l.24-.54H56.9l.24.54A7.7,7.7,0,0,1,57.82,80,7.83,7.83,0,0,1,50,87.86Zm-5.69-9.72A5.78,5.78,0,0,0,44,80a6,6,0,1,0,12,0,5.78,5.78,0,0,0-.31-1.9Z"/><path class="cls-1" d="M54.06,24l-.52-.1a18.68,18.68,0,0,0-7.07,0L46,24l-.35-.4a5.8,5.8,0,1,1,8.8,0ZM50,15.89a4,4,0,0,0-3.32,6.16,21.13,21.13,0,0,1,6.64,0A3.91,3.91,0,0,0,54,19.87,4,4,0,0,0,50,15.89Z"/><path class="cls-2" d="M11.75,86.94a.94.94,0,0,1-.62-.25,20,20,0,0,1,0-29.38.91.91,0,1,1,1.24,1.33,18.2,18.2,0,0,0,0,26.72.91.91,0,0,1-.62,1.58Z"/><path class="cls-2" d="M16.89,81.8a.9.9,0,0,1-.6-.23,12.78,12.78,0,0,1,0-19.14.91.91,0,1,1,1.2,1.36,11,11,0,0,0,0,16.42.9.9,0,0,1,.08,1.28A.92.92,0,0,1,16.89,81.8Z"/><path class="cls-3" d="M11.75,86.94a.94.94,0,0,1-.62-.25,20,20,0,0,1,0-29.38.91.91,0,1,1,1.24,1.33,18.2,18.2,0,0,0,0,26.72.91.91,0,0,1-.62,1.58Z"/><path class="cls-3" d="M16.89,81.8a.9.9,0,0,1-.6-.23,12.78,12.78,0,0,1,0-19.14.91.91,0,1,1,1.2,1.36,11,11,0,0,0,0,16.42.9.9,0,0,1,.08,1.28A.92.92,0,0,1,16.89,81.8Z"/><path class="cls-2" d="M88.25,86.94a.91.91,0,0,1-.62-1.58,18.2,18.2,0,0,0,0-26.72.91.91,0,1,1,1.24-1.33,20,20,0,0,1,0,29.38A.94.94,0,0,1,88.25,86.94Z"/><path class="cls-2" d="M83.11,81.8a.92.92,0,0,1-.68-.31.9.9,0,0,1,.08-1.28,11,11,0,0,0,0-16.42.91.91,0,1,1,1.2-1.36,12.8,12.8,0,0,1,0,19.14A.92.92,0,0,1,83.11,81.8Z"/><path class="cls-3" d="M88.25,86.94a.91.91,0,0,1-.62-1.58,18.2,18.2,0,0,0,0-26.72.91.91,0,1,1,1.24-1.33,20,20,0,0,1,0,29.38A.94.94,0,0,1,88.25,86.94Z"/><path class="cls-3" d="M83.11,81.8a.92.92,0,0,1-.68-.31.9.9,0,0,1,.08-1.28,11,11,0,0,0,0-16.42.91.91,0,1,1,1.2-1.36,12.8,12.8,0,0,1,0,19.14A.92.92,0,0,1,83.11,81.8Z"/><path class="cls-3" d="M33.42,43.37a.91.91,0,0,1-.91-.91,17.37,17.37,0,0,1,6.74-13.79.91.91,0,1,1,1.12,1.43,15.59,15.59,0,0,0-6,12.36A.9.9,0,0,1,33.42,43.37Z"/><path class="cls-3" d="M33.42,55.64a.91.91,0,0,1-.91-.91V45.87a.91.91,0,1,1,1.81,0v8.86A.9.9,0,0,1,33.42,55.64Z"/><path class="cls-3" d="M33,63.47a.63.63,0,0,1-.19,0,.91.91,0,0,1-.7-1.08,22.23,22.23,0,0,0,.45-4.15.94.94,0,0,1,.94-.89.92.92,0,0,1,.88.94,25.16,25.16,0,0,1-.49,4.49A.92.92,0,0,1,33,63.47Z"/></svg>