<svg id="Layer_1" data-name="Layer 1" xmlns="http://www.w3.org/2000/svg" viewBox="0 0 100 100"><defs><style>.cls-1{fill:#f19b1f;}.cls-2,.cls-6{fill:#fff;}.cls-3{opacity:0.5;}.cls-4{fill:#bf8d36;}.cls-5{fill:#163955;stroke:#163955;stroke-miterlimit:10;}.cls-6{font-size:20.83px;font-family:ComicSansMS, Comic Sans MS;}</style></defs><title>Alerts</title><path class="cls-1" d="M43.69,77.23A6.91,6.91,0,1,0,56.91,80a6.78,6.78,0,0,0-.6-2.81Z"/><path class="cls-1" d="M43.69,77.23a6.94,6.94,0,0,0-.6,2.81,7.92,7.92,0,0,0,0,.85H56.86a7.92,7.92,0,0,0,0-.85,6.78,6.78,0,0,0-.6-2.81Z"/><path class="cls-2" d="M69.77,54.73V42.46A19.83,19.83,0,0,0,50,22.69h0A19.83,19.83,0,0,0,30.23,42.46V54.73c0,2.45.69,11.59-4.43,11.59h0a5.46,5.46,0,0,0-5.45,5.45h0a5.47,5.47,0,0,0,5.45,5.46H74.2a5.47,5.47,0,0,0,5.45-5.46h0a5.46,5.46,0,0,0-5.45-5.45h0C69.09,66.32,69.77,57.18,69.77,54.73Z"/><path class="cls-1" d="M74.2,66.32c-5.11,0-4.43-9.14-4.43-11.59V42.46A19.83,19.83,0,0,0,50,22.69h0a20.17,20.17,0,0,0-2.21.13c5.32,1.11,9.48,9.52,9.48,19.64V54.73c0,2.45-.36,11.59,2.4,11.59,1.62,0,2.94,2.45,2.94,5.45h0c0,3-1.32,5.46-2.94,5.46H74.2a5.47,5.47,0,0,0,5.45-5.46h0A5.46,5.46,0,0,0,74.2,66.32Z"/><path class="cls-1" d="M50,22.69h0a18.9,18.9,0,0,1,3.71.36,4.88,4.88,0,1,0-7.42,0A19,19,0,0,1,50,22.69Z"/><g class="cls-3"><path class="cls-4" d="M50,15a4.81,4.81,0,0,0-1.74.33,4.87,4.87,0,0,1,2.23,7.39,19,19,0,0,1,3.22.35A4.89,4.89,0,0,0,50,15Z"/></g><path class="cls-5" d="M74.2,78.14H25.8a6.37,6.37,0,0,1,0-12.73,2.41,2.41,0,0,0,1.82-.74c1.86-1.9,1.76-7,1.72-9.12,0-.32,0-.6,0-.82V42.46a20.68,20.68,0,0,1,41.36,0V54.73c0,.22,0,.5,0,.82,0,2.16-.15,7.22,1.72,9.12a2.39,2.39,0,0,0,1.81.74,6.37,6.37,0,0,1,0,12.73ZM50,23.6A18.88,18.88,0,0,0,31.14,42.46V54.73c0,.21,0,.48,0,.78.06,2.6.16,8-2.23,10.43a4.2,4.2,0,0,1-3.12,1.29,4.55,4.55,0,0,0,0,9.09H74.2a4.55,4.55,0,1,0,0-9.09,4.16,4.16,0,0,1-3.11-1.29c-2.4-2.44-2.29-7.83-2.24-10.43,0-.3,0-.57,0-.78V42.46A18.88,18.88,0,0,0,50,23.6Z"/><path class="cls-5" d="M50,87.86A7.83,7.83,0,0,1,42.18,80a7.7,7.7,0,0,1,.68-3.18l.24-.54H56.9l.24.54A7.7,7.7,0,0,1,57.82,80,7.83,7.83,0,0,1,50,87.86Zm-5.69-9.72A5.78,5.78,0,0,0,44,80a6,6,0,1,0,12,0,5.78,5.78,0,0,0-.31-1.9Z"/><path class="cls-5" d="M54.06,24l-.52-.1a18.68,18.68,0,0,0-7.07,0L46,24l-.35-.4a5.8,5.8,0,1,1,8.8,0ZM50,15.89a4,4,0,0,0-3.32,6.16,21.13,21.13,0,0,1,6.64,0A3.91,3.91,0,0,0,54,19.87,4,4,0,0,0,50,15.89Z"/><path class="cls-4" d="M11.75,86.94a.94.94,0,0,1-.62-.25,20,20,0,0,1,0-29.38.91.91,0,1,1,1.24,1.33,18.2,18.2,0,0,0,0,26.72.91.91,0,0,1-.62,1.58Z"/><path class="cls-4" d="M16.89,81.8a.9.9,0,0,1-.6-.23,12.78,12.78,0,0,1,0-19.14.91.91,0,1,1,1.2,1.36,11,11,0,0,0,0,16.42.9.9,0,0,1,.08,1.28A.92.92,0,0,1,16.89,81.8Z"/><path class="cls-1" d="M11.75,86.94a.94.94,0,0,1-.62-.25,20,20,0,0,1,0-29.38.91.91,0,1,1,1.24,1.33,18.2,18.2,0,0,0,0,26.72.91.91,0,0,1-.62,1.58Z"/><path class="cls-1" d="M16.89,81.8a.9.9,0,0,1-.6-.23,12.78,12.78,0,0,1,0-19.14.91.91,0,1,1,1.2,1.36,11,11,0,0,0,0,16.42.9.9,0,0,1,.08,1.28A.92.92,0,0,1,16.89,81.8Z"/><path class="cls-4" d="M88.25,86.94a.91.91,0,0,1-.62-1.58,18.2,18.2,0,0,0,0-26.72.91.91,0,1,1,1.24-1.33,20,20,0,0,1,0,29.38A.94.94,0,0,1,88.25,86.94Z"/><path class="cls-4" d="M83.11,81.8a.92.92,0,0,1-.68-.31.9.9,0,0,1,.08-1.28,11,11,0,0,0,0-16.42.91.91,0,1,1,1.2-1.36,12.8,12.8,0,0,1,0,19.14A.92.92,0,0,1,83.11,81.8Z"/><path class="cls-1" d="M88.25,86.94a.91.91,0,0,1-.62-1.58,18.2,18.2,0,0,0,0-26.72.91.91,0,1,1,1.24-1.33,20,20,0,0,1,0,29.38A.94.94,0,0,1,88.25,86.94Z"/><path class="cls-1" d="M83.11,81.8a.92.92,0,0,1-.68-.31.9.9,0,0,1,.08-1.28,11,11,0,0,0,0-16.42.91.91,0,1,1,1.2-1.36,12.8,12.8,0,0,1,0,19.14A.92.92,0,0,1,83.11,81.8Z"/><path class="cls-1" d="M33.42,43.37a.91.91,0,0,1-.91-.91,17.37,17.37,0,0,1,6.74-13.79.91.91,0,1,1,1.12,1.43,15.59,15.59,0,0,0-6,12.36A.9.9,0,0,1,33.42,43.37Z"/><path class="cls-1" d="M33.42,55.64a.91.91,0,0,1-.91-.91V45.87a.91.91,0,1,1,1.81,0v8.86A.9.9,0,0,1,33.42,55.64Z"/><path class="cls-1" d="M33,63.47a.63.63,0,0,1-.19,0,.91.91,0,0,1-.7-1.08,22.23,22.23,0,0,0,.45-4.15.94.94,0,0,1,.94-.89.92.92,0,0,1,.88.94,25.16,25.16,0,0,1-.49,4.49A.92.92,0,0,1,33,63.47Z"/><circle class="cls-1" cx="70.74" cy="25.59" r="12.54"/><path class="cls-5" d="M70.74,39A13.45,13.45,0,1,1,84.19,25.59,13.46,13.46,0,0,1,70.74,39Zm0-25.07A11.63,11.63,0,1,0,82.37,25.59,11.64,11.64,0,0,0,70.74,14Z"/><text class="cls-6" transform="translate(63.41 33.1)">4</text></svg>