<svg id="Layer_1" data-name="Layer 1" xmlns="http://www.w3.org/2000/svg" viewBox="0 0 100 100"><defs><style>.cls-1{fill:#163955;}.cls-2{fill:#f19b1f;}</style></defs><title>Asset Backed</title><path class="cls-1" d="M95,82.54a15.49,15.49,0,0,1-1.11,1.84,4.17,4.17,0,0,1-3.33,1.55q-14,0-28.08,0a4.41,4.41,0,0,1-4.41-4.5q-.07-6.65,0-13.29a4.49,4.49,0,0,1,4.65-4.59H64c0-1.12,0-2.18,0-3.24a49.72,49.72,0,0,1,.27-6.47c1-6,6.55-10.31,12.87-10.12A12.57,12.57,0,0,1,89,54.54a28.38,28.38,0,0,1,.15,3.19c0,1.9,0,3.79,0,5.84,2.87-.28,4.9.79,5.84,3.57ZM67.64,63.49H85.43c0-2.49,0-4.92,0-7.34a8.89,8.89,0,0,0-17.75-.54C67.51,58.19,67.64,60.8,67.64,63.49Zm12,9c0-.32,0-.66,0-1a3.06,3.06,0,0,0-2.27-2.62A2.89,2.89,0,0,0,74,70.15a4.33,4.33,0,0,0,0,4.64,4.35,4.35,0,0,1,.71,2.68c0,.43,0,.86,0,1.29a1.84,1.84,0,1,0,3.68,0c0-.8,0-1.6,0-2.4a1.49,1.49,0,0,1,.26-.9A3.53,3.53,0,0,0,79.59,72.52Z"/><path class="cls-1" d="M5,50.74A2.55,2.55,0,0,1,7.48,49.6c.89.06,1.8,0,2.69,0s1.05-.19,1-1a14.72,14.72,0,0,1,0-1.5H9.34c-1.41,0-2-.62-2-2q0-8.66,0-17.3c0-1.31.66-1.93,2-2,.39,0,.79,0,1.32,0,0-1.31,0-2.53,0-3.75,0-1.59.59-2.18,2.16-2.2h2.08c0-1.36,0-2.61,0-3.87a1.77,1.77,0,0,1,2-2h31.3c1.47,0,2.06.61,2.06,2.07,0,1.69,0,3.39,0,5.15A30.47,30.47,0,0,0,41,23.39a3.3,3.3,0,0,1-1.18.1q-12.3,0-24.6,0H14.18v2.38H36l.09.19a14.38,14.38,0,0,0-2.17,1.76c-1.21,1.42-2.68,1.63-4.44,1.6-5.83-.08-11.66,0-17.49,0H10.85V31.8h19c-.79,1.2-1.42,2.26-2.15,3.23-.18.23-.7.29-1.07.29-4.86,0-9.73,0-14.6,0H10.88v2.38h15.4C25.83,38.91,25.46,40,25,41c-.09.2-.64.24-1,.24-4,0-8,0-12,0H10.86v2.41H24.31l-.45,3.47h-9.2v2.45h1.87c2.13,0,4.27,0,6.4,0,.64,0,.86.24.86.88,0,.83.11,1.66.18,2.6H8.56v2.43H10.1c4.47,0,8.93,0,13.4,0,.73,0,1.07.18,1.2.94A24.11,24.11,0,0,0,25.42,59c-.37,0-.66.05-1,.05-5.67,0-11.33,0-17,0A2.6,2.6,0,0,1,5,57.94ZM18.39,19.88h28.3V17.63H18.39Z"/><path class="cls-1" d="M74.78,40.26a18.59,18.59,0,0,0-2.41.52c-.71.25-1,.11-1.37-.58A20.75,20.75,0,0,0,58,29.11,21.22,21.22,0,1,0,49,70.45a37.84,37.84,0,0,0,5.54,0v3.44c-9.71,1.52-22.4-4.51-26.21-17.44A24.63,24.63,0,0,1,74.78,40.26Z"/><path class="cls-2" d="M56.31,42.57c-.9-1.49-3.45-2.62-5.82-2.62-2.86,0-5.48.82-5.48,3.24s2.72,2.68,5.61,3c5,.62,10.41,1.51,10.41,7.58,0,4.65-3.89,7.27-8.17,7.58v3.45H48.49V61.55c-3.86-.34-7.45-2.1-9.07-5.89l4.07-1.72c.93,2.2,4,3.62,6.86,3.62,3.1,0,6-1.07,6-3.76,0-2.27-2.86-3.1-6.06-3.48-4.93-.55-9.76-1.41-9.76-7.13,0-4.52,4-6.59,8-7.07v-3h4.37v3c2.93.45,5.62,1.55,7.17,4.72Z"/></svg>