<svg id="Layer_1" data-name="Layer 1" xmlns="http://www.w3.org/2000/svg" viewBox="0 0 100 100"><defs><style>.cls-1{fill:#163955;}.cls-2{fill:#f19b1f;}</style></defs><title>Asset Backed-s</title><path class="cls-1" d="M63.12,63.85h-.39a4.18,4.18,0,0,0-4.36,4.29c0,4.71,0,9,0,13.28a4.11,4.11,0,0,0,4.11,4.21H90.56a3.86,3.86,0,0,0,3.1-1.44A7.52,7.52,0,0,0,94.41,83l.29-.52V67.19c-.87-2.52-2.67-3.6-5.51-3.32l-.33,0V61.75c0-1.37,0-2.69,0-4a27.2,27.2,0,0,0-.15-3.16A12.25,12.25,0,0,0,77.08,44a12.09,12.09,0,0,0-12.56,9.87,30,30,0,0,0-.25,4.55c0,.63,0,1.26,0,1.88s0,1.45,0,2.2v1.33H63.12ZM78.88,75.68s-.16.22-.18.71,0,.87,0,1.31,0,.72,0,1.07A2.18,2.18,0,0,1,76.54,81h0a2.17,2.17,0,0,1-2.14-2.24c0-.44,0-.88,0-1.32a4.07,4.07,0,0,0-.66-2.5,4.63,4.63,0,0,1,0-5,3.19,3.19,0,0,1,3.63-1.38,3.35,3.35,0,0,1,2.49,2.88,4.33,4.33,0,0,1,0,.72v.28A3.84,3.84,0,0,1,78.88,75.68ZM67.37,55.59a9.19,9.19,0,0,1,18.35.55c0,1.68,0,3.35,0,5,0,.77,0,1.54,0,2.31v.3H67.34v-.3c0-.84,0-1.67,0-2.5C67.29,59.13,67.26,57.38,67.37,55.59Z"/><path class="cls-1" d="M40.08,23.19a2.3,2.3,0,0,0,.85-.08,31,31,0,0,1,9-2.1V19.75c0-1.22,0-2.41,0-3.61s-.46-1.77-1.76-1.77H16.86c-1.21,0-1.71.5-1.72,1.72,0,.87,0,1.73,0,2.63v1.54H12.76c-1.4,0-1.86.48-1.86,1.9,0,.83,0,1.66,0,2.51v1.54H9.29c-1.18,0-1.7.54-1.7,1.66q0,8.64,0,17.3c0,1.2.5,1.67,1.75,1.7h2.08v.3c0,.19,0,.37,0,.54a5.5,5.5,0,0,0,0,.92,1.18,1.18,0,0,1-.23,1,1.29,1.29,0,0,1-1,.29c-.44,0-.9,0-1.33,0s-.91,0-1.37,0a2.25,2.25,0,0,0-2.16.93v7a2.27,2.27,0,0,0,2.17.93q6,0,12.11,0h4.89l.56,0c-.05-.14-.1-.29-.14-.43a13.52,13.52,0,0,1-.49-1.78c-.09-.56-.26-.68-.9-.69-3.35,0-6.7,0-10,0H8.26v-3H23.65c0-.18,0-.34,0-.51-.06-.62-.11-1.2-.11-1.79a.7.7,0,0,0-.11-.48.76.76,0,0,0-.45-.1c-1.5,0-3,0-4.51,0l-3.13,0h-.93v-3h9.23L24,44H10.56V41h4c3.14,0,6.28,0,9.43,0a1.89,1.89,0,0,0,.73-.1c.31-.71.6-1.5.91-2.34.06-.17.12-.34.19-.52H10.58V35H15c3.88,0,7.75,0,11.63,0a1.38,1.38,0,0,0,.83-.17c.52-.7,1-1.45,1.51-2.24l.33-.51H10.55v-3h6.3c4.15,0,8.43,0,12.65,0,1.78,0,3.11-.21,4.2-1.5a8,8,0,0,1,1.51-1.28l.24-.17H13.88v-3h26.2Zm-22-3V17.33H47v2.85Z"/><path class="cls-1" d="M74.38,40A24.11,24.11,0,0,0,52.13,25a25.06,25.06,0,0,0-6.83,1A24.12,24.12,0,0,0,30.61,37.59a24.38,24.38,0,0,0-2,18.82C32.32,69,44.49,75.06,54.22,73.67V70.79c-.5,0-1,0-1.49,0a20.86,20.86,0,0,1-3.79-.08,21.52,21.52,0,1,1,9.17-41.93A21.1,21.1,0,0,1,71.27,40.06c.28.56.44.63,1,.44A10,10,0,0,1,74,40.11Z"/><path class="cls-2" d="M50.61,64.33h.13a1.62,1.62,0,0,0,1.62-1.63V60.92l.47,0c3.83-.28,7.7-2.57,7.7-7.08,0-5.42-4.51-6.41-10-7.09-2.69-.32-6.05-.72-6.05-3.52,0-2.38,2.18-3.74,6-3.74a8.8,8.8,0,0,1,5.26,1.76,1.64,1.64,0,0,0,1.75.25,1.57,1.57,0,0,0,.92-1.22,1.61,1.61,0,0,0-.51-1.46,9.24,9.24,0,0,0-5.12-2.16l-.43-.07v-1.5a1.69,1.69,0,1,0-3.37,0v1.52l-.44,0c-1.77.21-7.56,1.32-7.56,6.57s4.22,6.06,9.31,6.63c2.8.33,6.51,1.11,6.51,4,0,2.62-2.48,4.26-6.46,4.26A9,9,0,0,1,44,55.54,1.77,1.77,0,0,0,42.68,55a1.57,1.57,0,0,0-.6.12l-.2.08a1.67,1.67,0,0,0-1,1.14,1.59,1.59,0,0,0,.33,1.38,10.7,10.7,0,0,0,7.28,3.38l.46,0v1.6A1.63,1.63,0,0,0,50.61,64.33Z"/></svg>