<svg xmlns="http://www.w3.org/2000/svg" viewBox="0 0 226.43 17.95"><defs><style>.cls-1{fill:#163956;}.cls-2{fill:#f29c1f;}</style></defs><title>logo</title><g id="Layer_2" data-name="Layer 2"><g id="Layer_1-2" data-name="Layer 1"><path class="cls-1" d="M11.2,11.84a1.87,1.87,0,0,1,1.32.55,1.83,1.83,0,0,1,.56,1.36,1.56,1.56,0,0,1-.1.53c-.07.17-.15.35-.24.53a6.07,6.07,0,0,1-2.3,2.28A6.59,6.59,0,0,1,7.08,18H6.83a7,7,0,0,1-2.63-.49A6.91,6.91,0,0,1,2,16.09,7,7,0,0,1,.56,14,6.13,6.13,0,0,1,0,11.4V6.83A6.64,6.64,0,0,1,.52,4.2,6.73,6.73,0,0,1,2,2,6.64,6.64,0,0,1,4.09.59,6.73,6.73,0,0,1,6.83.06,6.52,6.52,0,0,1,8.29.2,6.6,6.6,0,0,1,10.42,1,6.24,6.24,0,0,1,12.77,3.3a4.55,4.55,0,0,1,.21.48,1.76,1.76,0,0,1,.1.53,1.91,1.91,0,0,1-1.91,1.91,1.53,1.53,0,0,1-1-.33,3.6,3.6,0,0,1-.7-.79,2.41,2.41,0,0,0-.92-.9,4.78,4.78,0,0,0-1.23-.48l-.51,0a3.32,3.32,0,0,0-1.23.23,3.43,3.43,0,0,0-1,.63,3,3,0,0,0-.67,1,2.77,2.77,0,0,0-.25,1.17v4.48a2.78,2.78,0,0,0,.21,1.22,2.94,2.94,0,0,0,.67,1,3.52,3.52,0,0,0,1,.68,3.35,3.35,0,0,0,1.3.25H7.2a4,4,0,0,0,1.34-.48,2.79,2.79,0,0,0,.92-.89,4.09,4.09,0,0,1,.65-.79A1.61,1.61,0,0,1,11.2,11.84Z"/><path class="cls-1" d="M26.94,18a7,7,0,0,1-2.64-.49,6.75,6.75,0,0,1-2.15-1.37A7,7,0,0,1,20.66,14a6.13,6.13,0,0,1-.56-2.6V6.83a6.82,6.82,0,0,1,.52-2.63A6.9,6.9,0,0,1,22.05,2a6.69,6.69,0,0,1,4.89-2,6.83,6.83,0,0,1,2.57.49,6.57,6.57,0,0,1,2.16,1.37A6.91,6.91,0,0,1,33.15,4a6.06,6.06,0,0,1,.56,2.61v4.56a6.6,6.6,0,0,1-.52,2.63A6.67,6.67,0,0,1,26.94,18ZM30.07,6.83a3.16,3.16,0,0,0-.24-1.22,2.8,2.8,0,0,0-.67-1,3.36,3.36,0,0,0-1-.67,3,3,0,0,0-1.24-.25,3.25,3.25,0,0,0-1.23.23,3.3,3.3,0,0,0-1,.63,3,3,0,0,0-.68,1,2.93,2.93,0,0,0-.25,1.17v4.48A2.78,2.78,0,0,0,24,12.39a3.09,3.09,0,0,0,.67,1,3.52,3.52,0,0,0,1,.68,3.35,3.35,0,0,0,1.3.25,2.93,2.93,0,0,0,1.18-.24,3.43,3.43,0,0,0,1-.63,3,3,0,0,0,.67-.95A2.81,2.81,0,0,0,30,11.31Z"/><path class="cls-1" d="M47.6,18A7.41,7.41,0,0,1,45,17.44a6.61,6.61,0,0,1-2.15-1.38A7,7,0,0,1,41.38,14a6.13,6.13,0,0,1-.56-2.6V6.8a6.82,6.82,0,0,1,.52-2.63A6.76,6.76,0,0,1,44.91.56,7,7,0,0,1,47.66,0a7.06,7.06,0,0,1,1.45.14,6.43,6.43,0,0,1,2.13.75,6.19,6.19,0,0,1,2.35,2.36,2.29,2.29,0,0,1,.21.47,1.54,1.54,0,0,1,.1.53,1.86,1.86,0,0,1-.56,1.35A1.84,1.84,0,0,1,52,6.19a1.55,1.55,0,0,1-1-.32,3.41,3.41,0,0,1-.7-.8,2.51,2.51,0,0,0-.93-.9,4.87,4.87,0,0,0-1.23-.47,3.84,3.84,0,0,0-.5,0,3.07,3.07,0,0,0-1.23.24,3,3,0,0,0-1,.63,3,3,0,0,0-.68,1,2.93,2.93,0,0,0-.25,1.17v4.48a2.73,2.73,0,0,0,.21,1.29,3.14,3.14,0,0,0,.67.93,3.49,3.49,0,0,0,1,.67,3.54,3.54,0,0,0,1.3.28,2.89,2.89,0,0,0,1.22-.23,2.72,2.72,0,0,0,.9-.63,3.28,3.28,0,0,0,.66-1,2.9,2.9,0,0,0,.25-1.15h-.65a1.77,1.77,0,0,1-1.3-.55,1.8,1.8,0,0,1-.54-1.33,1.83,1.83,0,0,1,.54-1.35,1.77,1.77,0,0,1,1.3-.55h2.47a1.76,1.76,0,0,1,1.34.55,2,2,0,0,1,.59,1.35v1.71a8.15,8.15,0,0,1-.6,2.63A6.67,6.67,0,0,1,47.6,18Z"/><path class="cls-1" d="M68.4.14A6.84,6.84,0,0,1,71,.63,6.74,6.74,0,0,1,73.14,2a7,7,0,0,1,1.48,2.09,6.13,6.13,0,0,1,.56,2.6v9.44a1.75,1.75,0,0,1-.52,1.26,1.82,1.82,0,0,1-1.27.56,1.85,1.85,0,0,1-1.3-.49,1.59,1.59,0,0,1-.55-1.25V6.92A3.12,3.12,0,0,0,71.3,5.7a3,3,0,0,0-.67-1,3.49,3.49,0,0,0-1-.67,3,3,0,0,0-1.24-.25A2.93,2.93,0,0,0,67.2,4a3.43,3.43,0,0,0-1,.63,3,3,0,0,0-.67.95,2.81,2.81,0,0,0-.25,1.18v9.35a1.73,1.73,0,0,1-.56,1.27,1.8,1.8,0,0,1-1.29.55,1.85,1.85,0,0,1-1.29-.51,1.59,1.59,0,0,1-.56-1.23V6.92a7.08,7.08,0,0,1,.55-2.64A6.68,6.68,0,0,1,68.4.14Z"/><path class="cls-1" d="M84.5.08a1.79,1.79,0,0,1,1.31.56A1.86,1.86,0,0,1,86.35,2V16.07a1.8,1.8,0,0,1-.54,1.33A1.78,1.78,0,0,1,84.5,18a1.8,1.8,0,0,1-1.35-.55,1.77,1.77,0,0,1-.55-1.33V2A1.83,1.83,0,0,1,83.15.64,1.81,1.81,0,0,1,84.5.08Z"/><path class="cls-1" d="M105.31.06a1.81,1.81,0,0,1,1.36.56A1.86,1.86,0,0,1,107.21,2a1.79,1.79,0,0,1-.54,1.34,1.87,1.87,0,0,1-1.36.54h-3.14V16a1.87,1.87,0,0,1-.53,1.36,1.76,1.76,0,0,1-1.34.55A1.79,1.79,0,0,1,99,17.4,1.87,1.87,0,0,1,98.42,16V3.84H95.26a1.8,1.8,0,0,1-1.33-.54A1.76,1.76,0,0,1,93.38,2,1.83,1.83,0,0,1,93.93.62,1.75,1.75,0,0,1,95.26.06Z"/><path class="cls-1" d="M120,18a7,7,0,0,1-2.63-.49A6.61,6.61,0,0,1,113.68,14a6.13,6.13,0,0,1-.56-2.6V6.83a6.64,6.64,0,0,1,.52-2.63A6.73,6.73,0,0,1,115.07,2,6.64,6.64,0,0,1,117.21.59,6.73,6.73,0,0,1,120,.06a6.84,6.84,0,0,1,2.58.49,6.42,6.42,0,0,1,2.15,1.37A6.93,6.93,0,0,1,126.17,4a6.21,6.21,0,0,1,.56,2.61v4.56a6.6,6.6,0,0,1-.52,2.63A6.67,6.67,0,0,1,120,18Zm3.14-11.12a3.16,3.16,0,0,0-.24-1.22,2.94,2.94,0,0,0-.67-1,3.49,3.49,0,0,0-1-.67,3,3,0,0,0-1.25-.25,3.32,3.32,0,0,0-1.23.23,3.43,3.43,0,0,0-1,.63,3,3,0,0,0-.67,1,2.77,2.77,0,0,0-.25,1.17v4.48a2.78,2.78,0,0,0,.21,1.22,2.94,2.94,0,0,0,.67,1,3.39,3.39,0,0,0,1,.68,3.31,3.31,0,0,0,1.3.25,3,3,0,0,0,1.18-.24,3.43,3.43,0,0,0,1-.63,3,3,0,0,0,.67-.95,2.81,2.81,0,0,0,.25-1.18Z"/><path class="cls-2" d="M147.64,6.8a6.57,6.57,0,0,1-.53,2.65,6.75,6.75,0,0,1-3.62,3.63,6.78,6.78,0,0,1-2.65.53h-3v2.46a1.81,1.81,0,0,1-.55,1.33,1.88,1.88,0,0,1-2.66,0,1.81,1.81,0,0,1-.55-1.33V1.88a1.81,1.81,0,0,1,.55-1.33A1.79,1.79,0,0,1,135.94,0h4.9a6.78,6.78,0,0,1,2.65.53A6.91,6.91,0,0,1,145.66,2a6.77,6.77,0,0,1,1.45,2.17A6.56,6.56,0,0,1,147.64,6.8Zm-3.75,0a2.92,2.92,0,0,0-.24-1.17,2.85,2.85,0,0,0-.65-1A3.13,3.13,0,0,0,142,4a3,3,0,0,0-1.18-.24h-3V9.86h3A3,3,0,0,0,142,9.62,3.13,3.13,0,0,0,143,9a3.06,3.06,0,0,0,.89-2.16Z"/><path class="cls-2" d="M165.09,14.14a1.75,1.75,0,0,1,1.3.55,1.8,1.8,0,0,1,.54,1.33,1.83,1.83,0,0,1-.54,1.35,1.75,1.75,0,0,1-1.3.55h-8.63a1.76,1.76,0,0,1-1.34-.55,2,2,0,0,1-.59-1.35V1.93A1.81,1.81,0,0,1,155.09.6a1.89,1.89,0,0,1,1.37-.54,1.83,1.83,0,0,1,1.3.54,1.76,1.76,0,0,1,.58,1.33V14.14Z"/><path class="cls-2" d="M180.35.06a6.83,6.83,0,0,1,2.57.49,6.57,6.57,0,0,1,2.16,1.37A6.91,6.91,0,0,1,186.56,4a6.06,6.06,0,0,1,.56,2.61V16a1.71,1.71,0,0,1-.52,1.26,1.74,1.74,0,0,1-1.27.56,1.86,1.86,0,0,1-1.3-.49,1.6,1.6,0,0,1-.55-1.24V12.85h-6.24V16a1.75,1.75,0,0,1-.56,1.28,1.81,1.81,0,0,1-1.29.54,1.87,1.87,0,0,1-1.29-.5,1.62,1.62,0,0,1-.56-1.23V6.83a7,7,0,0,1,.55-2.63A6.73,6.73,0,0,1,175.52,2a6.69,6.69,0,0,1,4.83-2Zm3.13,6.77a3.16,3.16,0,0,0-.24-1.22,2.8,2.8,0,0,0-.67-1,3.36,3.36,0,0,0-1-.67,3,3,0,0,0-1.24-.25,3.18,3.18,0,0,0-1.18.23,3.43,3.43,0,0,0-1,.63,3,3,0,0,0-.67,1,2.77,2.77,0,0,0-.25,1.17V9.21h6.24Z"/><path class="cls-2" d="M205.55,11.84a1.83,1.83,0,0,1,1.31.55,1.8,1.8,0,0,1,.56,1.36,1.35,1.35,0,0,1-.1.53,4.73,4.73,0,0,1-.23.53,6.14,6.14,0,0,1-2.3,2.28,6.61,6.61,0,0,1-3.36.86h-.25a7,7,0,0,1-2.63-.49A6.61,6.61,0,0,1,194.91,14a6,6,0,0,1-.56-2.6V6.83a6.81,6.81,0,0,1,.51-2.63A7.07,7.07,0,0,1,196.29,2,6.75,6.75,0,0,1,198.43.59a6.81,6.81,0,0,1,2.75-.53,6.37,6.37,0,0,1,1.45.14,6.43,6.43,0,0,1,2.13.75,6.17,6.17,0,0,1,2.35,2.35,2.39,2.39,0,0,1,.21.48,1.5,1.5,0,0,1,.1.53,1.84,1.84,0,0,1-.56,1.35,1.84,1.84,0,0,1-1.34.56,1.52,1.52,0,0,1-1-.33,3.6,3.6,0,0,1-.7-.79,2.41,2.41,0,0,0-.92-.9,4.72,4.72,0,0,0-1.24-.48l-.5,0a3.25,3.25,0,0,0-1.23.23,3.3,3.3,0,0,0-1,.63,2.86,2.86,0,0,0-.67,1A2.77,2.77,0,0,0,198,6.69v4.48a3.1,3.1,0,0,0,.21,1.22,3,3,0,0,0,.68,1,3.47,3.47,0,0,0,1,.68,3.4,3.4,0,0,0,1.31.25h.33a4.07,4.07,0,0,0,1.35-.48,2.79,2.79,0,0,0,.92-.89,4.47,4.47,0,0,1,.64-.79A1.64,1.64,0,0,1,205.55,11.84Z"/><path class="cls-2" d="M224.56,14.17a1.78,1.78,0,0,1,1.33.56A1.89,1.89,0,0,1,224.56,18h-8a1.82,1.82,0,0,1-1.3-.55,1.8,1.8,0,0,1-.58-1.36V2a1.93,1.93,0,0,1,.54-1.32,1.72,1.72,0,0,1,1.34-.58h8a1.78,1.78,0,0,1,1.33.56A1.86,1.86,0,0,1,226.43,2a1.79,1.79,0,0,1-.54,1.34,1.83,1.83,0,0,1-1.33.54H218.4V7h4.28a1.79,1.79,0,0,1,1.32.56,1.84,1.84,0,0,1,.56,1.34,1.78,1.78,0,0,1-.56,1.33,1.81,1.81,0,0,1-1.32.55H218.4v3.36Z"/></g></g></svg>