<svg id="Layer_1" data-name="Layer 1" xmlns="http://www.w3.org/2000/svg" viewBox="0 0 100 100"><defs><style>.cls-1{fill:#163955;}.cls-2{fill:#f19b1f;}</style></defs><title>Easy-s</title><path class="cls-1" d="M31.32,62.89c-.14-2.15.26-4,2.49-4.76s3.66.24,4.84,2.1c0-2.23.58-4,2.85-4.66,1.79-.49,3.22.23,4.4,2,.06-.56.12-.84.12-1.13,0-3.87,0-7.74,0-11.62,0-2.44,1.47-4.09,3.62-4.12s3.75,1.65,3.75,4.14c0,7.62,0,15.24,0,22.86a14.53,14.53,0,0,0,.14,1.48l.34.08c.48-.68,1-1.36,1.44-2.06.94-1.4,1.84-2.83,2.81-4.21a3.72,3.72,0,0,1,5.19-1.14,3.64,3.64,0,0,1,1,5.22Q56.55,78.77,48.75,90.41a2.18,2.18,0,0,1-2,1.09c-6.1,0-12.19,0-18.29,0-1.59,0-2.07-.47-2.07-2q0-10.81,0-21.62C26.34,64.06,27.4,63,31.32,62.89Z"/><path class="cls-1" d="M74.76,8.5H26.41a6.7,6.7,0,0,0-6.7,6.7V80.72a6.67,6.67,0,0,0,2.12,4.88,6.52,6.52,0,0,0,2.52,1.47V80.24a3.72,3.72,0,0,1-.61-.43,3.57,3.57,0,0,1-1.23-2.69V15a3.81,3.81,0,0,1,3.9-3.7H74.76a3.81,3.81,0,0,1,3.9,3.7V77.12a3.79,3.79,0,0,1-3.88,3.68H57.56l-.84,1.27q-1.78,2.66-3.55,5.33H74.78a6.68,6.68,0,0,0,6.68-6.68V15.2A6.7,6.7,0,0,0,74.76,8.5Z"/><path class="cls-2" d="M61.75,57.41a5.11,5.11,0,0,1,1.6.34.44.44,0,0,0,.19.06s.09,0,.33-.31A18.49,18.49,0,0,0,68.58,45v-.58c0-.41,0-.82,0-1.22a10.55,10.55,0,0,0-.19-1.33c-1.59-8.11-6.3-13.19-14-15.1s-14.3.34-19.17,6.51S29.7,46.38,33.35,53.87c.19.38.2.37.55.3a5.85,5.85,0,0,1,1.55-.05c.2,0,.41,0,.62,0a16.16,16.16,0,0,1-2.35-13.34A16.68,16.68,0,1,1,62.16,56.23a4,4,0,0,0-.73,1,1.12,1.12,0,0,0,0,.13l.21,0Z"/><path class="cls-2" d="M57.2,51.56l-.06.74a2.67,2.67,0,0,0,.63-.62,10.4,10.4,0,1,0-16.35-.75c.3.43.53.66.83.63,0-.3,0-.6,0-.91a28.13,28.13,0,0,0-.38-3.79,8.21,8.21,0,0,1,8.07-10.17A8.29,8.29,0,0,1,55,38.43a8.59,8.59,0,0,1,2.7,9.18A21.28,21.28,0,0,0,57.2,51.56Z"/></svg>