<svg id="Layer_1" data-name="Layer 1" xmlns="http://www.w3.org/2000/svg" viewBox="0 0 100 100"><defs><style>.cls-1{fill:#163955;}.cls-2{fill:#f19b1f;}</style></defs><title>Easy</title><path class="cls-1" d="M54.28,87.23l5.92-8.88a16.85,16.85,0,0,0,1.42-2.17c.69-1.48,1.78-1.86,3.36-1.78,2.72.13,5.44,0,8.16,0,1.68,0,2.23-.56,2.23-2.23V16.58c0-1.62-.54-2.18-2.14-2.19H26.87c-1.76,0-2.26.54-2.26,2.31q0,22.5,0,45a11.42,11.42,0,0,1-.44,2.12,18.45,18.45,0,0,0-.64,3.49c-.07,6,0,12,0,17.92V86.8a8.6,8.6,0,0,1-1.32-.5,6.78,6.78,0,0,1-3.6-6.08q0-32.38,0-64.78A7,7,0,0,1,25.6,8.51H74.31a7,7,0,0,1,7.13,7.13c0,5.35,0,10.71,0,16.07V79.54c0,4.79-2.91,7.69-7.71,7.69H54.28Z"/><path class="cls-1" d="M31.32,62.89c-.14-2.15.26-4,2.49-4.76s3.66.24,4.84,2.1c0-2.23.58-4,2.85-4.66,1.79-.49,3.22.23,4.4,2,.06-.56.12-.84.12-1.13,0-3.87,0-7.74,0-11.62,0-2.44,1.47-4.09,3.62-4.12s3.75,1.65,3.75,4.14c0,7.62,0,15.24,0,22.86a14.53,14.53,0,0,0,.14,1.48l.34.08c.48-.68,1-1.36,1.44-2.06.94-1.4,1.84-2.83,2.81-4.21a3.72,3.72,0,0,1,5.19-1.14,3.64,3.64,0,0,1,1,5.22Q56.55,78.77,48.75,90.41a2.18,2.18,0,0,1-2,1.09c-6.1,0-12.19,0-18.29,0-1.59,0-2.07-.47-2.07-2q0-10.81,0-21.62C26.34,64.06,27.4,63,31.32,62.89Z"/><path class="cls-2" d="M69.58,45a19.34,19.34,0,0,1-5,13.21c-.48.55-.92.85-1.68.51a4.67,4.67,0,0,0-1.45-.28c-1-.1-1.37-.58-1-1.54a4.83,4.83,0,0,1,.92-1.29,15.71,15.71,0,0,0-13-26.28A15.61,15.61,0,0,0,34.69,41.06,15.21,15.21,0,0,0,37,53.78a4.75,4.75,0,0,1,.4,1.17,10.5,10.5,0,0,1-1.23.2,12.16,12.16,0,0,0-2.09,0,1.31,1.31,0,0,1-1.65-.84c-3.72-7.65-3.28-15,2-21.7s12.18-8.86,20.2-6.86c8.19,2,13.09,7.55,14.73,15.88a10.27,10.27,0,0,1,.21,1.46C69.61,43.71,69.58,44.33,69.58,45Z"/><path class="cls-2" d="M56,53.36a39.64,39.64,0,0,1,.73-6,7.59,7.59,0,0,0-2.37-8.14,7.3,7.3,0,0,0-11.6,7.46,49.47,49.47,0,0,1,.51,5.63,1.92,1.92,0,0,1-2.71-.79,11.39,11.39,0,1,1,17.93.81A2.21,2.21,0,0,1,56,53.36Z"/></svg>