<svg id="Layer_1" data-name="Layer 1" xmlns="http://www.w3.org/2000/svg" viewBox="0 0 1200 1200"><defs><style>.cls-1{fill:#071636;}.cls-2{fill:#f19b1f;}</style></defs><title>loanbase</title><path class="cls-1" d="M158.9,874.93a11.74,11.74,0,0,1,8.6,3.6,12,12,0,0,1,3.61,8.78,12.18,12.18,0,0,1-3.61,9,11.75,11.75,0,0,1-8.6,3.61H102a11.88,11.88,0,0,1-8.87-3.61,13.73,13.73,0,0,1-3.88-9v-93a11.81,11.81,0,0,1,3.7-8.78,12.47,12.47,0,0,1,9-3.6,12.16,12.16,0,0,1,8.6,3.6,11.71,11.71,0,0,1,3.79,8.78v80.61Z"/><path class="cls-1" d="M256,900.07a46.5,46.5,0,0,1-17.38-3.24,43.7,43.7,0,0,1-14.23-9.05,45.16,45.16,0,0,1-9.8-13.78,40.15,40.15,0,0,1-3.7-17.19V826.68a44.38,44.38,0,0,1,3.42-17.38,44.85,44.85,0,0,1,9.43-14.24,44.29,44.29,0,0,1,14.14-9.61A45.26,45.26,0,0,1,256,781.94a45.8,45.8,0,0,1,17,3.23,44,44,0,0,1,14.23,9.06A45.28,45.28,0,0,1,297,808a40.41,40.41,0,0,1,3.7,17.2v30.13a44.35,44.35,0,0,1-3.42,17.38,45,45,0,0,1-9.43,14.23A44.05,44.05,0,0,1,256,900.07Zm20.7-73.39a20.78,20.78,0,0,0-1.57-8,19.41,19.41,0,0,0-4.43-6.56,22.56,22.56,0,0,0-6.66-4.44,20.41,20.41,0,0,0-8.23-1.66,20.71,20.71,0,0,0-8.13,1.57,22.1,22.1,0,0,0-6.47,4.16,19.35,19.35,0,0,0-4.44,6.29,18.7,18.7,0,0,0-1.66,7.76v29.58a18.6,18.6,0,0,0,1.38,8,19.37,19.37,0,0,0,4.44,6.57,22.4,22.4,0,0,0,6.66,4.43,21.13,21.13,0,0,0,8.59,1.67,19.83,19.83,0,0,0,7.77-1.57,22.24,22.24,0,0,0,6.47-4.16,19.35,19.35,0,0,0,4.44-6.29,18.82,18.82,0,0,0,1.66-7.76Z"/><path class="cls-1" d="M393.32,781.94a45.71,45.71,0,0,1,17,3.23,43.94,43.94,0,0,1,14.24,9.06,45.28,45.28,0,0,1,9.8,13.77,40.4,40.4,0,0,1,3.69,17.2v62.3a11.51,11.51,0,0,1-3.42,8.32,12,12,0,0,1-8.41,3.7,12.42,12.42,0,0,1-8.59-3.24,10.54,10.54,0,0,1-3.61-8.23V866.42H372.8V887.5a11.39,11.39,0,0,1-3.7,8.41,11.86,11.86,0,0,1-8.51,3.61,12.32,12.32,0,0,1-8.5-3.33,10.52,10.52,0,0,1-3.7-8.14V826.68A46.78,46.78,0,0,1,352,809.3a44.85,44.85,0,0,1,9.43-14.24,44.1,44.1,0,0,1,31.89-13.12ZM414,826.68a20.78,20.78,0,0,0-1.57-8,19.43,19.43,0,0,0-4.44-6.56,22.51,22.51,0,0,0-6.65-4.44,20.41,20.41,0,0,0-8.23-1.66,19.75,19.75,0,0,0-7.76,1.57,22,22,0,0,0-6.47,4.16,19.35,19.35,0,0,0-4.44,6.29,18.7,18.7,0,0,0-1.66,7.76v16.64H414Z"/><path class="cls-1" d="M531.41,782.49a45.53,45.53,0,0,1,17,3.24,43.88,43.88,0,0,1,14.24,9.06,45.13,45.13,0,0,1,9.79,13.77,40.18,40.18,0,0,1,3.7,17.19v62.3a11.51,11.51,0,0,1-3.42,8.32,11.88,11.88,0,0,1-8.41,3.7,12.44,12.44,0,0,1-8.6-3.24,10.55,10.55,0,0,1-3.6-8.22V827.23a21,21,0,0,0-1.57-8,19.43,19.43,0,0,0-4.44-6.56,22.51,22.51,0,0,0-6.65-4.44,20.24,20.24,0,0,0-8.23-1.66,19.65,19.65,0,0,0-7.77,1.57,22,22,0,0,0-6.47,4.16,19.28,19.28,0,0,0-4.43,6.28,18.75,18.75,0,0,0-1.67,7.77v61.74a11.42,11.42,0,0,1-3.69,8.42,11.87,11.87,0,0,1-8.51,3.6,12.32,12.32,0,0,1-8.5-3.33,10.52,10.52,0,0,1-3.7-8.13V827.23a46.82,46.82,0,0,1,3.6-17.38,45,45,0,0,1,9.43-14.23,44.1,44.1,0,0,1,31.89-13.13Z"/><path class="cls-2" d="M638.82,781.75h41.23a34.77,34.77,0,0,1,13.86,2.78,41.72,41.72,0,0,1,11.28,7,30,30,0,0,1,7.58,10.63A34.15,34.15,0,0,1,715.54,816a35.33,35.33,0,0,1-2.31,12.95,37.88,37.88,0,0,1-6.38,10.72,35.28,35.28,0,0,1,8.69,23.29,40.4,40.4,0,0,1-2.77,14.61,34,34,0,0,1-7.58,12,36.84,36.84,0,0,1-11.28,7.68,33.82,33.82,0,0,1-13.86,2.86H637.9a14,14,0,0,1-9.06-3.51,12.44,12.44,0,0,1-3.51-8.88V794a9.67,9.67,0,0,1,1.48-5.18,12.6,12.6,0,0,1,2.4-3.33,11.42,11.42,0,0,1,7.58-3.7ZM680.05,828a10.85,10.85,0,0,0,8-3.33,11.06,11.06,0,0,0,3.33-8.13,10.56,10.56,0,0,0-3.33-7.86,11,11,0,0,0-8-3.23H649.73V828Zm0,47.51a11,11,0,0,0,8-3.23q3.33-3.24,3.33-9.89T688,852.47a11,11,0,0,0-8-3.24H649.73v26.25Z"/><path class="cls-2" d="M808.53,781.94a45.76,45.76,0,0,1,17,3.23,43.89,43.89,0,0,1,14.23,9.06,45.28,45.28,0,0,1,9.8,13.77,40.26,40.26,0,0,1,3.7,17.2v62.3a11.51,11.51,0,0,1-3.42,8.32,12,12,0,0,1-8.41,3.7,12.42,12.42,0,0,1-8.6-3.24,10.57,10.57,0,0,1-3.6-8.23V866.42H788V887.5a11.36,11.36,0,0,1-3.7,8.41,11.84,11.84,0,0,1-8.5,3.61,12.35,12.35,0,0,1-8.51-3.33,10.55,10.55,0,0,1-3.69-8.14V826.68a46.78,46.78,0,0,1,3.6-17.38,44.85,44.85,0,0,1,9.43-14.24,44.1,44.1,0,0,1,31.89-13.12Zm20.71,44.74a20.78,20.78,0,0,0-1.58-8,19.26,19.26,0,0,0-4.43-6.56,22.43,22.43,0,0,0-6.66-4.44,20.36,20.36,0,0,0-8.22-1.66,19.8,19.8,0,0,0-7.77,1.57,22.1,22.1,0,0,0-6.47,4.16,19.35,19.35,0,0,0-4.44,6.29,18.7,18.7,0,0,0-1.66,7.76v16.64h41.23Z"/><path class="cls-2" d="M936.65,806.9a9.91,9.91,0,0,0-7.49,3.23,12,12,0,0,0-3.24,8,10.73,10.73,0,0,0,3.24,7.31,10.19,10.19,0,0,0,7.49,3h12.57a32.83,32.83,0,0,1,13.22,2.77,37.61,37.61,0,0,1,19.32,19.13,33.79,33.79,0,0,1,3,14,34.31,34.31,0,0,1-2.77,13.68,35.71,35.71,0,0,1-7.58,11.28A37,37,0,0,1,963.08,897a36,36,0,0,1-13.86,3.05H916.31a12.1,12.1,0,0,1-9.06-3.6,12.35,12.35,0,0,1-3.51-9,12.46,12.46,0,0,1,12.57-12.39h32.91A10.73,10.73,0,0,0,956.8,872a10.49,10.49,0,0,0,.09-15.25,11.35,11.35,0,0,0-7.49-3.24H936.65a36.47,36.47,0,0,1-13.5-3A37.77,37.77,0,0,1,911.78,843a36.22,36.22,0,0,1-7.86-11.19,34.15,34.15,0,0,1-.18-27.36A37.07,37.07,0,0,1,911.41,793a39.21,39.21,0,0,1,11.37-8,32.17,32.17,0,0,1,13.87-3h32.9a11.45,11.45,0,0,1,8.51,3.6,13.83,13.83,0,0,1,3.88,9,12,12,0,0,1-12.39,12.39Z"/><path class="cls-2" d="M1098.41,875.11a11.85,11.85,0,0,1,8.78,3.7,12.06,12.06,0,0,1,3.6,8.69,12.19,12.19,0,0,1-3.6,9,12,12,0,0,1-8.78,3.6h-52.88a12.14,12.14,0,0,1-8.59-3.6,11.87,11.87,0,0,1-3.79-9v-93a12.65,12.65,0,0,1,3.51-8.69,11.44,11.44,0,0,1,8.87-3.88h52.88a11.81,11.81,0,0,1,8.78,3.7,12.25,12.25,0,0,1,3.6,8.87,11.87,11.87,0,0,1-3.6,8.87,12.11,12.11,0,0,1-8.78,3.52h-40.68V828H1086a11.88,11.88,0,0,1,8.69,3.7,12.11,12.11,0,0,1,3.7,8.87,11.81,11.81,0,0,1-3.7,8.78,12,12,0,0,1-8.69,3.61h-28.29v22.18Z"/><path class="cls-2" d="M697.74,509c13.3-12.24,22.22-29.43,22-47.29A89.54,89.54,0,0,0,718,444.4a64.35,64.35,0,0,0-20.53-35.51A80.75,80.75,0,0,0,678.88,397c-8.82-4.19-17.77-4.53-27.38-4.92-8.62-.36-17.25-.48-25.88-.51h-.8c-24.81-.11-49.62-.06-74.43,0a20.86,20.86,0,0,0-5.82.86,17.8,17.8,0,0,0-7.79,29.63c3.9,4,8.69,5.58,14.22,5.57q48.56-.06,97.11,0c5.26,0,10.45.25,15.47,2.23A31.79,31.79,0,0,1,683.42,460a31.47,31.47,0,0,1-20.64,28.5c-4.93,1.77-10,1.62-15.08,1.62q-47.07.07-94.15,0c-1.31,0-2.63-.06-3.94,0a18.85,18.85,0,0,0-17,12.8,19.78,19.78,0,0,0,0,12.05,18.85,18.85,0,0,0,17,12.8c1.31.07,2.63,0,3.94,0q47.07,0,94.15,0c5.07,0,10.15-.15,15.08,1.62a31.35,31.35,0,0,1,.8,58.63c-5,2-10.21,2.23-15.47,2.23q-48.55,0-97.11,0c-5.53,0-10.32,1.56-14.22,5.57a17.8,17.8,0,0,0,7.79,29.63,21.25,21.25,0,0,0,5.82.87c24.81,0,49.62.1,74.43,0h.8c8.63,0,17.26-.15,25.88-.5,9.61-.4,18.56-.74,27.38-4.93A80.41,80.41,0,0,0,697.42,609,64.28,64.28,0,0,0,718,573.53a89.52,89.52,0,0,0,1.81-17.27C720,538.39,711,521.2,697.74,509Z"/><path class="cls-1" d="M714.62,645c-3.9-4-8.69-5.58-14.22-5.57-32.37,0-116.14,0-148.51,0-5.27,0-10.46-.26-15.48-2.23a31.78,31.78,0,0,1-19.83-30.13V409.75a18.17,18.17,0,0,0-18.17-18.17h0a18.16,18.16,0,0,0-18.17,18.17V607.06h.05a87.57,87.57,0,0,0,1.76,15.57,64.39,64.39,0,0,0,20.52,35.52A80.81,80.81,0,0,0,521.12,670c8.81,4.18,17.77,4.53,27.38,4.92,8.62.36,17.25.48,25.88.5h.8c24.81.12,101,.07,125.84,0a21.22,21.22,0,0,0,5.81-.86A17.79,17.79,0,0,0,714.62,645Z"/></svg>