<svg xmlns="http://www.w3.org/2000/svg" viewBox="0 0 363.26 94.32"><defs><style>.cls-1{fill:#fff;}.cls-2{fill:#f19b1f;}</style></defs><title>logo-full</title><g id="Layer_2" data-name="Layer 2"><g id="Layer_1-2" data-name="Layer 1"><path class="cls-1" d="M198.12,26.19a4.43,4.43,0,0,1-1.94,7.37,5.1,5.1,0,0,1-1.45.22q-9.25,0-18.52,0H176c-2.14,0-4.29,0-6.44-.13a16.79,16.79,0,0,1-6.81-1.22,19.92,19.92,0,0,1-4.61-3A16,16,0,0,1,153,20.63a21.33,21.33,0,0,1-.45-4.29c-.09-7.36,6-14.26,13-15.86,2.93-.67,6.27-.44,9.26-.44h0c6.54,0,13.09,0,19.63,0a4.7,4.7,0,0,1,3.17,1.06,4.58,4.58,0,0,1,1.44,5,4.68,4.68,0,0,1-4.23,3.18c-.33,0-.66,0-1,0H170.52a10.67,10.67,0,0,0-3.76.41,7.79,7.79,0,0,0-.19,14.58,10.12,10.12,0,0,0,3.85.56h24.16A4.68,4.68,0,0,1,198.12,26.19Z"/><path class="cls-2" d="M176.35,19.9a4.43,4.43,0,0,1,1.8-7.41,5.5,5.5,0,0,1,1.45-.24c6.17-.12,12.34-.25,18.51-.33h.2c2.15,0,4.3-.05,6.44,0a16.9,16.9,0,0,1,6.84,1.1,19.8,19.8,0,0,1,4.66,2.88,16,16,0,0,1,5.27,8.74,22.08,22.08,0,0,1,.53,4.29c.22,7.35-5.79,14.36-12.76,16.09-2.91.72-6.25.55-9.24.61h0c-6.54.13-13.09.23-19.63.37a4.74,4.74,0,0,1-3.19-1,4.59,4.59,0,0,1-1.53-5,4.68,4.68,0,0,1,4.18-3.26c.32,0,.65,0,1,0l23.42-.43a10.87,10.87,0,0,0,3.75-.48,7.82,7.82,0,0,0,5-7.18,7.93,7.93,0,0,0-5.07-7.41,10.33,10.33,0,0,0-3.86-.48l-24.16.44A4.66,4.66,0,0,1,176.35,19.9Z"/><path class="cls-1" d="M18.4,84.29a3.11,3.11,0,0,1,3.08,3.13,2.28,2.28,0,0,1-.16.87c-.11.28-.24.57-.39.88a10.05,10.05,0,0,1-3.77,3.75,10.94,10.94,0,0,1-5.52,1.4h-.42a11.52,11.52,0,0,1-4.32-.81,10.69,10.69,0,0,1-3.54-2.25A11.27,11.27,0,0,1,.92,87.83,10,10,0,0,1,0,83.56v-7.5a11,11,0,0,1,.85-4.33A11.12,11.12,0,0,1,3.2,68.19,10.92,10.92,0,0,1,6.72,65.8a11.29,11.29,0,0,1,4.5-.87,11,11,0,0,1,2.4.23,10.32,10.32,0,0,1,3.49,1.24A10.17,10.17,0,0,1,21,70.26a5.85,5.85,0,0,1,.34.78,2.61,2.61,0,0,1,.16.88,3.14,3.14,0,0,1-3.13,3.13,2.53,2.53,0,0,1-1.65-.53,5.64,5.64,0,0,1-1.15-1.31A4.15,4.15,0,0,0,14,71.73,8.52,8.52,0,0,0,12,71a7.1,7.1,0,0,0-.83,0,5.17,5.17,0,0,0-2,.39,5.48,5.48,0,0,0-1.61,1,4.82,4.82,0,0,0-1.1,1.57A4.55,4.55,0,0,0,6,75.83v7.36a4.66,4.66,0,0,0,.34,2,4.84,4.84,0,0,0,1.1,1.63,5.75,5.75,0,0,0,1.66,1.11,5.37,5.37,0,0,0,2.14.41h.55A6.67,6.67,0,0,0,14,87.56a4.74,4.74,0,0,0,1.52-1.47,6.14,6.14,0,0,1,1.06-1.29A2.57,2.57,0,0,1,18.4,84.29Z"/><path class="cls-1" d="M44.25,94.32a11.52,11.52,0,0,1-4.32-.81,10.69,10.69,0,0,1-3.54-2.25A11.1,11.1,0,0,1,34,87.83,9.87,9.87,0,0,1,33,83.56v-7.5a11,11,0,0,1,.85-4.33,11.26,11.26,0,0,1,2.34-3.54,11,11,0,0,1,3.52-2.39,11.86,11.86,0,0,1,8.74-.07,10.86,10.86,0,0,1,6,5.68,9.94,9.94,0,0,1,.92,4.28v7.5a11,11,0,0,1-.85,4.32,11.26,11.26,0,0,1-2.34,3.54,10.92,10.92,0,0,1-7.94,3.27ZM49.4,76.06a5.17,5.17,0,0,0-.39-2,4.88,4.88,0,0,0-1.1-1.64,5.72,5.72,0,0,0-1.66-1.1,5,5,0,0,0-2-.41,5.14,5.14,0,0,0-2,.39,5.48,5.48,0,0,0-1.61,1,4.68,4.68,0,0,0-1.1,1.57,4.56,4.56,0,0,0-.42,1.93v7.36a4.67,4.67,0,0,0,.35,2,4.84,4.84,0,0,0,1.1,1.63,5.75,5.75,0,0,0,1.66,1.11,5.37,5.37,0,0,0,2.14.41A4.9,4.9,0,0,0,46.23,88a5.5,5.5,0,0,0,1.61-1,4.74,4.74,0,0,0,1.1-1.56,4.6,4.6,0,0,0,.42-1.93Z"/><path class="cls-1" d="M78.2,94.32A12.11,12.11,0,0,1,74,93.49a11.1,11.1,0,0,1-3.54-2.28A10.94,10.94,0,0,1,68,87.79a9.94,9.94,0,0,1-.92-4.28V76a11,11,0,0,1,.85-4.32,11.26,11.26,0,0,1,2.34-3.54,11.05,11.05,0,0,1,3.52-2.4,11.34,11.34,0,0,1,4.51-.87,11.47,11.47,0,0,1,2.39.23,10.52,10.52,0,0,1,3.5,1.24A10.18,10.18,0,0,1,88,70.22a4.11,4.11,0,0,1,.35.78,2.55,2.55,0,0,1,.16.87A3.14,3.14,0,0,1,85.42,75a2.51,2.51,0,0,1-1.65-.53,5.44,5.44,0,0,1-1.15-1.31,4.2,4.2,0,0,0-1.52-1.47,7.69,7.69,0,0,0-2-.78,6.68,6.68,0,0,0-.82,0,5.14,5.14,0,0,0-2,.39,5.5,5.5,0,0,0-1.61,1,4.74,4.74,0,0,0-1.1,1.56,4.6,4.6,0,0,0-.42,1.93v7.36a4.6,4.6,0,0,0,.35,2.12,5.3,5.3,0,0,0,1.1,1.52,5.63,5.63,0,0,0,3.8,1.56,4.76,4.76,0,0,0,2-.37,4.9,4.9,0,0,0,1.47-1,5.38,5.38,0,0,0,1.08-1.59,4.48,4.48,0,0,0,.42-1.89H82.25a3,3,0,0,1-2.14-.89,3,3,0,0,1-.9-2.19,3,3,0,0,1,.9-2.23,2.92,2.92,0,0,1,2.14-.9h4a2.94,2.94,0,0,1,2.2.9,3.39,3.39,0,0,1,1,2.23v2.81a13,13,0,0,1-1,4.32A11,11,0,0,1,78.2,94.32Z"/><path class="cls-1" d="M112.38,65.06a11.29,11.29,0,0,1,4.23.81,11,11,0,0,1,3.54,2.25,11.27,11.27,0,0,1,2.44,3.43,10.06,10.06,0,0,1,.92,4.28v15.5a2.85,2.85,0,0,1-.85,2.07,3,3,0,0,1-2.09.92,3.07,3.07,0,0,1-2.14-.81,2.6,2.6,0,0,1-.9-2V76.2a5.22,5.22,0,0,0-.39-2A4.82,4.82,0,0,0,116,72.56a5.36,5.36,0,0,0-1.65-1.1,5,5,0,0,0-2-.42,4.9,4.9,0,0,0-1.93.39,5.71,5.71,0,0,0-1.61,1,4.74,4.74,0,0,0-1.1,1.56,4.64,4.64,0,0,0-.42,1.94V91.33a2.84,2.84,0,0,1-.92,2.09,2.93,2.93,0,0,1-2.11.9,3.08,3.08,0,0,1-2.12-.83,2.62,2.62,0,0,1-.92-2V76.2a11.6,11.6,0,0,1,.9-4.33,11,11,0,0,1,10.28-6.81Z"/><path class="cls-1" d="M138.83,65a2.92,2.92,0,0,1,2.14.92,3,3,0,0,1,.89,2.16V91.24a3,3,0,0,1-.89,2.18,2.93,2.93,0,0,1-2.14.9,3,3,0,0,1-2.23-.9,3,3,0,0,1-.9-2.18V68.05A3.11,3.11,0,0,1,138.83,65Z"/><path class="cls-1" d="M173,64.93a3,3,0,0,1,2.24.92,3.07,3.07,0,0,1,.89,2.2,3,3,0,0,1-.89,2.21,3.11,3.11,0,0,1-2.24.88h-5.15v20a3.08,3.08,0,0,1-.87,2.23,3.16,3.16,0,0,1-4.42,0,3.08,3.08,0,0,1-.87-2.23v-20h-5.2a3,3,0,0,1-2.18-.88,3,3,0,0,1-.9-2.21,3,3,0,0,1,.9-2.2,2.89,2.89,0,0,1,2.18-.92Z"/><path class="cls-1" d="M197.06,94.32a11.52,11.52,0,0,1-4.32-.81,10.69,10.69,0,0,1-3.54-2.25,11.1,11.1,0,0,1-2.44-3.43,9.87,9.87,0,0,1-.92-4.27v-7.5a11,11,0,0,1,.85-4.33A11.12,11.12,0,0,1,189,68.19a11,11,0,0,1,3.51-2.39,11.86,11.86,0,0,1,8.74-.07,10.86,10.86,0,0,1,6,5.68,9.94,9.94,0,0,1,.92,4.28v7.5a11,11,0,0,1-11.13,11.13Zm5.15-18.26a5.17,5.17,0,0,0-.39-2,4.88,4.88,0,0,0-1.1-1.64,5.72,5.72,0,0,0-1.66-1.1,5,5,0,0,0-2-.41,5.17,5.17,0,0,0-2,.39,5.48,5.48,0,0,0-1.61,1,4.68,4.68,0,0,0-1.1,1.57,4.56,4.56,0,0,0-.42,1.93v7.36a4.67,4.67,0,0,0,.35,2,4.84,4.84,0,0,0,1.1,1.63A5.75,5.75,0,0,0,195,87.93a5.37,5.37,0,0,0,2.14.41A4.9,4.9,0,0,0,199,88a5.5,5.5,0,0,0,1.61-1,4.74,4.74,0,0,0,1.1-1.56,4.6,4.6,0,0,0,.42-1.93Z"/><path class="cls-2" d="M238.28,84.29a3.11,3.11,0,0,1,3.08,3.13,2.28,2.28,0,0,1-.16.87c-.11.28-.24.57-.39.88A10.05,10.05,0,0,1,237,92.92a10.94,10.94,0,0,1-5.52,1.4h-.42a11.52,11.52,0,0,1-4.32-.81,10.69,10.69,0,0,1-3.54-2.25,11.1,11.1,0,0,1-2.44-3.43,9.87,9.87,0,0,1-.92-4.27v-7.5a11,11,0,0,1,.85-4.33,11.12,11.12,0,0,1,2.35-3.54,10.87,10.87,0,0,1,3.51-2.39,11.34,11.34,0,0,1,4.51-.87,10.83,10.83,0,0,1,2.39.23A10.3,10.3,0,0,1,237,66.4a10.15,10.15,0,0,1,3.86,3.86,4.77,4.77,0,0,1,.35.78,2.61,2.61,0,0,1,.16.88,3.14,3.14,0,0,1-3.13,3.13,2.51,2.51,0,0,1-1.65-.53,5.64,5.64,0,0,1-1.15-1.31,4.15,4.15,0,0,0-1.52-1.48,8.45,8.45,0,0,0-2-.78,6.82,6.82,0,0,0-.82,0,5.17,5.17,0,0,0-2,.39,5.48,5.48,0,0,0-1.61,1,4.68,4.68,0,0,0-1.1,1.57,4.56,4.56,0,0,0-.42,1.93v7.36a4.67,4.67,0,0,0,.35,2,4.84,4.84,0,0,0,1.1,1.63A5.75,5.75,0,0,0,229,87.93a5.37,5.37,0,0,0,2.14.41h.55a6.67,6.67,0,0,0,2.21-.78,4.74,4.74,0,0,0,1.52-1.47,6.45,6.45,0,0,1,1-1.29A2.62,2.62,0,0,1,238.28,84.29Z"/><path class="cls-2" d="M272.59,65a3.21,3.21,0,0,1,2.19.88,2.8,2.8,0,0,1,1,2.2V91.24a2.72,2.72,0,0,1-.26,1.15,3,3,0,0,1-.71,1,3.58,3.58,0,0,1-1,.69,2.91,2.91,0,0,1-1.18.25,2.84,2.84,0,0,1-2-.9,2.94,2.94,0,0,1-.92-2.18V83.69h-10v7.55a3.07,3.07,0,0,1-3.08,3.08,3.18,3.18,0,0,1-2.32-.87,3.12,3.12,0,0,1-.95-2.21V68.05a2.77,2.77,0,0,1,1-2.25,3.46,3.46,0,0,1,2.28-.83,2.92,2.92,0,0,1,2.18.92,3,3,0,0,1,.9,2.16v9.39h10V68.05a3,3,0,0,1,.92-2.16A2.82,2.82,0,0,1,272.59,65Z"/><path class="cls-2" d="M299.18,64.93a11,11,0,0,1,10.21,6.48,9.94,9.94,0,0,1,.92,4.28v15.5a2.85,2.85,0,0,1-.85,2.07,3,3,0,0,1-2.09.92,3.12,3.12,0,0,1-2.14-.8,2.63,2.63,0,0,1-.9-2V86H294.08v5.24a2.82,2.82,0,0,1-.92,2.09,3,3,0,0,1-2.12.9,3.05,3.05,0,0,1-2.12-.83,2.62,2.62,0,0,1-.92-2V76.06a11.6,11.6,0,0,1,.9-4.33,11.12,11.12,0,0,1,2.35-3.54,11,11,0,0,1,3.51-2.39A11.1,11.1,0,0,1,299.18,64.93Zm5.15,11.13a5.17,5.17,0,0,0-.39-2,4.88,4.88,0,0,0-1.1-1.64,5.72,5.72,0,0,0-1.66-1.1,5.15,5.15,0,0,0-4,0,5.48,5.48,0,0,0-1.61,1,4.68,4.68,0,0,0-1.1,1.57,4.55,4.55,0,0,0-.41,1.93V80h10.25Z"/><path class="cls-2" d="M325.63,65a2.9,2.9,0,0,1,2.14.92,3,3,0,0,1,.9,2.16V91.24a3,3,0,0,1-.9,2.18,2.92,2.92,0,0,1-2.14.9,3,3,0,0,1-2.23-.9,3,3,0,0,1-.9-2.18V68.05A3.11,3.11,0,0,1,325.63,65Z"/><path class="cls-2" d="M352.13,65.06a11.29,11.29,0,0,1,4.23.81,11,11,0,0,1,3.54,2.25,11.27,11.27,0,0,1,2.44,3.43,10.06,10.06,0,0,1,.92,4.28v15.5a2.85,2.85,0,0,1-.85,2.07,3,3,0,0,1-2.09.92,3.07,3.07,0,0,1-2.14-.81,2.6,2.6,0,0,1-.9-2V76.2a5.22,5.22,0,0,0-.39-2,4.82,4.82,0,0,0-1.11-1.63,5.36,5.36,0,0,0-1.65-1.1,5,5,0,0,0-2.05-.42,4.9,4.9,0,0,0-1.93.39,5.71,5.71,0,0,0-1.61,1,4.74,4.74,0,0,0-1.1,1.56A4.64,4.64,0,0,0,347,76V91.33a2.84,2.84,0,0,1-.92,2.09,2.93,2.93,0,0,1-2.11.9,3.08,3.08,0,0,1-2.12-.83,2.62,2.62,0,0,1-.92-2V76.2a11.6,11.6,0,0,1,.9-4.33,11,11,0,0,1,10.28-6.81Z"/></g></g></svg>