<svg id="Layer_1" data-name="Layer 1" xmlns="http://www.w3.org/2000/svg" viewBox="0 0 1373 250"><defs><style>.cls-1{fill:#071636;}.cls-2{fill:#f19b1f;}.cls-3{fill:#fff;}</style></defs><title>logo-beta</title><path class="cls-1" d="M283.32,169.62a9.91,9.91,0,0,1,7.26,3,10.13,10.13,0,0,1,3.05,7.43,10.28,10.28,0,0,1-3.05,7.57,9.92,9.92,0,0,1-7.26,3.05H235.19a10,10,0,0,1-7.5-3.05,11.62,11.62,0,0,1-3.28-7.57v-78.6a10,10,0,0,1,3.13-7.42,10.54,10.54,0,0,1,7.65-3,10.29,10.29,0,0,1,7.27,3,9.88,9.88,0,0,1,3.2,7.42v68.13Z"/><path class="cls-1" d="M365.35,190.87a39.23,39.23,0,0,1-14.69-2.74,37,37,0,0,1-12-7.65,38,38,0,0,1-8.28-11.64,34,34,0,0,1-3.13-14.54V128.84a37.45,37.45,0,0,1,2.89-14.69,38,38,0,0,1,8-12A37.46,37.46,0,0,1,350,94a40,40,0,0,1,29.69-.23,37,37,0,0,1,12,7.65A38.28,38.28,0,0,1,400,113.05a34,34,0,0,1,3.13,14.54v25.46a37.43,37.43,0,0,1-37.81,37.82Zm17.5-62a17.69,17.69,0,0,0-1.33-6.8,16.5,16.5,0,0,0-3.75-5.55,19.11,19.11,0,0,0-5.63-3.75,17.19,17.19,0,0,0-6.95-1.4,17.46,17.46,0,0,0-6.87,1.32,18.55,18.55,0,0,0-5.47,3.52,16.16,16.16,0,0,0-3.75,5.31,15.8,15.8,0,0,0-1.41,6.56v25a15.88,15.88,0,0,0,1.17,6.8,16.4,16.4,0,0,0,3.75,5.55,19.11,19.11,0,0,0,5.63,3.75,17.81,17.81,0,0,0,7.26,1.4,16.76,16.76,0,0,0,6.57-1.32,18.63,18.63,0,0,0,5.46-3.52,16.16,16.16,0,0,0,3.75-5.31,15.76,15.76,0,0,0,1.41-6.56Z"/><path class="cls-1" d="M481.44,91a38.57,38.57,0,0,1,14.37,2.74,37,37,0,0,1,12,7.65,38.63,38.63,0,0,1,8.28,11.64,34.11,34.11,0,0,1,3.12,14.54v52.65a9.71,9.71,0,0,1-2.89,7,10.08,10.08,0,0,1-7.11,3.13,10.47,10.47,0,0,1-7.26-2.74,8.9,8.9,0,0,1-3.05-6.95V162.43H464.1v17.81a9.64,9.64,0,0,1-3.13,7.11,10,10,0,0,1-7.19,3.05,10.42,10.42,0,0,1-7.18-2.81,8.9,8.9,0,0,1-3.13-6.88V128.84a39.44,39.44,0,0,1,3-14.69,37.65,37.65,0,0,1,8-12A37.25,37.25,0,0,1,481.44,91Zm17.5,37.82a17.69,17.69,0,0,0-1.33-6.8,16.5,16.5,0,0,0-3.75-5.55,19.2,19.2,0,0,0-5.62-3.75,17.27,17.27,0,0,0-7-1.4,16.68,16.68,0,0,0-6.56,1.32,18.68,18.68,0,0,0-5.47,3.52,16.46,16.46,0,0,0-3.75,5.31,15.79,15.79,0,0,0-1.4,6.56v14.07h34.84Z"/><path class="cls-1" d="M598.16,91.49a38.57,38.57,0,0,1,14.37,2.74,37,37,0,0,1,12,7.65,38.16,38.16,0,0,1,8.28,11.64A34,34,0,0,1,636,128.05v52.66a9.76,9.76,0,0,1-2.89,7,10.12,10.12,0,0,1-7.11,3.13,10.51,10.51,0,0,1-7.27-2.74,8.92,8.92,0,0,1-3-6.95V129.3a17.64,17.64,0,0,0-1.33-6.79,16.4,16.4,0,0,0-3.75-5.55,19.11,19.11,0,0,0-5.63-3.75,17,17,0,0,0-7-1.4,16.68,16.68,0,0,0-6.56,1.32,18.55,18.55,0,0,0-5.47,3.52,16.46,16.46,0,0,0-3.75,5.31,15.8,15.8,0,0,0-1.41,6.56v52.19a9.63,9.63,0,0,1-3.12,7.11,10,10,0,0,1-7.19,3.05,10.43,10.43,0,0,1-7.19-2.82,8.89,8.89,0,0,1-3.12-6.87V129.3a39.43,39.43,0,0,1,3-14.68,37.31,37.31,0,0,1,34.92-23.13Z"/><path class="cls-2" d="M688.94,90.87h34.84a29.48,29.48,0,0,1,11.72,2.34A34.94,34.94,0,0,1,745,99.15a25.35,25.35,0,0,1,6.41,9,29,29,0,0,1,2.34,11.64,29.85,29.85,0,0,1-1.95,10.94,31.9,31.9,0,0,1-5.39,9.06,29.84,29.84,0,0,1,7.34,19.69,34.14,34.14,0,0,1-2.34,12.34A28.75,28.75,0,0,1,745,182a31.25,31.25,0,0,1-9.53,6.49,28.7,28.7,0,0,1-11.72,2.42H688.16a11.88,11.88,0,0,1-7.66-3,10.49,10.49,0,0,1-3-7.5V101.18a8.27,8.27,0,0,1,1.25-4.38,10.94,10.94,0,0,1,2-2.81,9.69,9.69,0,0,1,6.41-3.12Zm34.84,39.06a9.2,9.2,0,0,0,6.72-2.81,9.35,9.35,0,0,0,2.81-6.88,8.91,8.91,0,0,0-2.81-6.64,9.33,9.33,0,0,0-6.72-2.73H698.16v19.06Zm0,40.16a9.3,9.3,0,0,0,6.72-2.74c1.88-1.82,2.81-4.61,2.81-8.36s-.93-6.53-2.81-8.36a9.33,9.33,0,0,0-6.72-2.73H698.16v22.19Z"/><path class="cls-2" d="M832.37,91a38.66,38.66,0,0,1,14.38,2.74,37.09,37.09,0,0,1,12,7.65,38.46,38.46,0,0,1,8.28,11.64,34.11,34.11,0,0,1,3.12,14.54v52.65a9.71,9.71,0,0,1-2.89,7,10,10,0,0,1-7.11,3.13,10.47,10.47,0,0,1-7.26-2.74,8.93,8.93,0,0,1-3-6.95V162.43H815v17.81a9.61,9.61,0,0,1-3.13,7.11,10,10,0,0,1-7.18,3.05,10.45,10.45,0,0,1-7.19-2.81,8.9,8.9,0,0,1-3.13-6.88V128.84a39.64,39.64,0,0,1,3.05-14.69,37.82,37.82,0,0,1,8-12,37.25,37.25,0,0,1,27-11.1Zm17.5,37.82a17.5,17.5,0,0,0-1.33-6.8,16.22,16.22,0,0,0-3.75-5.55,19.07,19.07,0,0,0-5.62-3.75,17.23,17.23,0,0,0-6.95-1.4,16.73,16.73,0,0,0-6.57,1.32,18.81,18.81,0,0,0-5.47,3.52,16.46,16.46,0,0,0-3.75,5.31,15.94,15.94,0,0,0-1.4,6.56v14.07h34.84Z"/><path class="cls-2" d="M940.65,112.12a8.33,8.33,0,0,0-6.32,2.73,10.12,10.12,0,0,0-2.74,6.8,9,9,0,0,0,2.74,6.17,8.57,8.57,0,0,0,6.32,2.58h10.63a27.77,27.77,0,0,1,11.17,2.34,31.78,31.78,0,0,1,16.33,16.17,28.53,28.53,0,0,1,2.5,11.8,28.9,28.9,0,0,1-2.35,11.56,29.87,29.87,0,0,1-6.4,9.53,31.37,31.37,0,0,1-9.53,6.49,30.59,30.59,0,0,1-11.72,2.58H923.47a10.23,10.23,0,0,1-7.66-3.05,10.43,10.43,0,0,1-3-7.58,10.55,10.55,0,0,1,10.63-10.47h27.81a9.06,9.06,0,0,0,6.4-2.65,8.86,8.86,0,0,0,.08-12.89,9.6,9.6,0,0,0-6.33-2.74H940.65a30.66,30.66,0,0,1-11.4-2.5,31.61,31.61,0,0,1-9.61-6.33,30.42,30.42,0,0,1-6.64-9.45,28.83,28.83,0,0,1-.16-23.12,31.06,31.06,0,0,1,6.49-9.69,33,33,0,0,1,9.61-6.8A27.08,27.08,0,0,1,940.65,91h27.82a9.66,9.66,0,0,1,7.18,3,11.64,11.64,0,0,1,3.28,7.58,10.14,10.14,0,0,1-10.46,10.47Z"/><path class="cls-2" d="M1077.37,169.77a10,10,0,0,1,7.42,3.13,10.18,10.18,0,0,1,3,7.34,10.3,10.3,0,0,1-3,7.58,10.1,10.1,0,0,1-7.42,3.05h-44.69a10.25,10.25,0,0,1-7.26-3.05,10,10,0,0,1-3.21-7.58V101.65a10.69,10.69,0,0,1,3-7.35,9.7,9.7,0,0,1,7.5-3.28h44.69a10,10,0,0,1,7.42,3.13,10.36,10.36,0,0,1,3,7.5,10,10,0,0,1-3,7.5,10.22,10.22,0,0,1-7.42,3H1043v17.81h23.9a10,10,0,0,1,7.34,3.12,10.23,10.23,0,0,1,3.13,7.5,10,10,0,0,1-3.13,7.43,10.17,10.17,0,0,1-7.34,3H1043v18.75Z"/><path class="cls-2" d="M156.62,127.9c7-6.46,11.74-15.54,11.63-25a46.6,46.6,0,0,0-1-9.12A34,34,0,0,0,156.45,75a42.83,42.83,0,0,0-9.79-6.27c-4.66-2.21-9.39-2.39-14.46-2.6-4.55-.19-9.11-.25-13.67-.27h-.42c-13.11-.06-26.21,0-39.31,0a11,11,0,0,0-3.07.46A9.39,9.39,0,0,0,71.61,82a9.91,9.91,0,0,0,7.51,3q25.65,0,51.29,0a21.86,21.86,0,0,1,8.17,1.17A16.82,16.82,0,0,1,149.06,102a16.64,16.64,0,0,1-10.9,15c-2.61.94-5.29.85-8,.86q-24.85,0-49.72,0c-.7,0-1.39,0-2.09,0a9.94,9.94,0,0,0-9,6.76,10.56,10.56,0,0,0,0,6.36,9.94,9.94,0,0,0,9,6.76c.7,0,1.39,0,2.09,0q24.86,0,49.72,0c2.68,0,5.36-.08,8,.86a16.62,16.62,0,0,1,10.9,15.05,16.79,16.79,0,0,1-10.48,15.91,21.67,21.67,0,0,1-8.17,1.18q-25.65,0-51.29,0a9.94,9.94,0,0,0-7.51,2.94,9.4,9.4,0,0,0,4.12,15.65,11,11,0,0,0,3.07.46c13.1,0,26.2.06,39.31,0h.42c4.56,0,9.12-.08,13.67-.27,5.07-.21,9.8-.39,14.46-2.6a42.83,42.83,0,0,0,9.79-6.27A34,34,0,0,0,167.29,162a46.6,46.6,0,0,0,1-9.12C168.36,143.44,163.64,134.36,156.62,127.9Z"/><path class="cls-1" d="M165.54,199.73a9.87,9.87,0,0,0-7.51-2.94c-17.1,0-61.35,0-78.44,0a21.87,21.87,0,0,1-8.17-1.18,16.79,16.79,0,0,1-10.48-15.91V75.5a9.6,9.6,0,0,0-9.6-9.6h0a9.59,9.59,0,0,0-9.59,9.6V179.71h0a45.38,45.38,0,0,0,.92,8.22,34,34,0,0,0,10.84,18.76,42.67,42.67,0,0,0,9.8,6.27c4.65,2.22,9.38,2.4,14.46,2.61,4.55.18,9.11.25,13.67.26h.42c13.1.06,53.36,0,66.46,0a11,11,0,0,0,3.07-.45A9.4,9.4,0,0,0,165.54,199.73Z"/><rect class="cls-2" x="1189.8" y="-29.34" width="77.98" height="204.93" rx="8.82" ry="8.82" transform="translate(1301.92 -1155.67) rotate(90)"/><path class="cls-3" d="M1151.89,49.21h16.67a14.09,14.09,0,0,1,5.61,1.12,16.7,16.7,0,0,1,4.55,2.84,12.09,12.09,0,0,1,3.07,4.3,13.76,13.76,0,0,1,1.12,5.57,14.14,14.14,0,0,1-.94,5.23,15.27,15.27,0,0,1-2.57,4.33,14.21,14.21,0,0,1,2.57,4.3,14,14,0,0,1,.94,5.12,16.25,16.25,0,0,1-1.12,5.9,13.61,13.61,0,0,1-3.07,4.86,14.74,14.74,0,0,1-4.55,3.1,13.62,13.62,0,0,1-5.61,1.16h-17a5.63,5.63,0,0,1-3.66-1.42,5,5,0,0,1-1.42-3.59V54.14a3.89,3.89,0,0,1,.59-2.09,5.39,5.39,0,0,1,1-1.35,4.66,4.66,0,0,1,3.07-1.49Zm16.67,18.68a4.4,4.4,0,0,0,3.21-1.34,4.47,4.47,0,0,0,1.35-3.29,4.27,4.27,0,0,0-1.35-3.18,4.44,4.44,0,0,0-3.21-1.3H1156.3v9.11Zm0,19.21a4.41,4.41,0,0,0,3.21-1.31,5.33,5.33,0,0,0,1.35-4,5.32,5.32,0,0,0-1.35-4,4.45,4.45,0,0,0-3.21-1.31H1156.3V87.1Z"/><path class="cls-3" d="M1219,87a4.75,4.75,0,0,1,3.55,1.5A4.85,4.85,0,0,1,1224,92a4.91,4.91,0,0,1-1.46,3.62A4.79,4.79,0,0,1,1219,97h-21.37a4.88,4.88,0,0,1-3.48-1.46,4.78,4.78,0,0,1-1.53-3.62V54.37a5.11,5.11,0,0,1,1.42-3.52,4.64,4.64,0,0,1,3.59-1.57H1219a4.75,4.75,0,0,1,3.55,1.5,5,5,0,0,1,1.46,3.59A4.79,4.79,0,0,1,1222.5,58a4.87,4.87,0,0,1-3.55,1.42h-16.44v8.52h11.43a4.81,4.81,0,0,1,3.52,1.5A4.9,4.9,0,0,1,1219,73a4.81,4.81,0,0,1-1.49,3.55,4.88,4.88,0,0,1-3.52,1.45h-11.43v9Z"/><path class="cls-3" d="M1264.26,49.28a4.85,4.85,0,0,1,3.63,1.5,5,5,0,0,1,1.46,3.59,4.79,4.79,0,0,1-1.46,3.58,5,5,0,0,1-3.63,1.42h-8.37V92a5,5,0,0,1-1.42,3.62,5.13,5.13,0,0,1-7.17,0,5,5,0,0,1-1.42-3.62V59.37h-8.45a4.87,4.87,0,0,1-3.55-1.42,4.79,4.79,0,0,1-1.46-3.58,5,5,0,0,1,1.46-3.59,4.75,4.75,0,0,1,3.55-1.5Z"/><path class="cls-3" d="M1293.06,49.28a18.44,18.44,0,0,1,6.87,1.31,17.8,17.8,0,0,1,5.76,3.66,18.43,18.43,0,0,1,4,5.57,16.22,16.22,0,0,1,1.49,6.95V92a4.64,4.64,0,0,1-1.38,3.36,4.8,4.8,0,0,1-3.4,1.5,5.06,5.06,0,0,1-3.48-1.31,4.27,4.27,0,0,1-1.45-3.33V83.44h-16.67V92a4.59,4.59,0,0,1-1.5,3.4,4.77,4.77,0,0,1-3.43,1.46,5,5,0,0,1-3.44-1.35,4.24,4.24,0,0,1-1.5-3.29V67.37a19,19,0,0,1,1.46-7,17.85,17.85,0,0,1,16.71-11.06Zm8.37,18.09a8.45,8.45,0,0,0-.64-3.25,7.71,7.71,0,0,0-1.79-2.65,9.19,9.19,0,0,0-2.69-1.8A8.15,8.15,0,0,0,1293,59a8,8,0,0,0-3.14.63,9,9,0,0,0-2.61,1.69,7.7,7.7,0,0,0-1.8,2.54,7.51,7.51,0,0,0-.67,3.14v6.72h16.67Z"/></svg>