<svg id="Layer_1" data-name="Layer 1" xmlns="http://www.w3.org/2000/svg" viewBox="0 0 1200 200"><defs><style>.cls-1{fill:#071636;}.cls-2{fill:#f19b1f;}</style></defs><title>logo</title><path class="cls-1" d="M328,128.75a9.92,9.92,0,0,1,7.26,3.05,10.1,10.1,0,0,1,3,7.42,10.3,10.3,0,0,1-3,7.58,9.91,9.91,0,0,1-7.26,3H279.9a10,10,0,0,1-7.5-3,11.64,11.64,0,0,1-3.28-7.58V60.63a10,10,0,0,1,3.12-7.43,10.57,10.57,0,0,1,7.66-3,10.28,10.28,0,0,1,7.27,3,9.88,9.88,0,0,1,3.2,7.43v68.12Z"/><path class="cls-1" d="M410.06,150a39.39,39.39,0,0,1-14.69-2.73,37.07,37.07,0,0,1-12-7.66A38,38,0,0,1,375.06,128a33.93,33.93,0,0,1-3.13-14.53V88a37.48,37.48,0,0,1,2.89-14.69,37.93,37.93,0,0,1,8-12,37.16,37.16,0,0,1,11.95-8.12,38.23,38.23,0,0,1,15.32-3,38.64,38.64,0,0,1,14.37,2.73,37.11,37.11,0,0,1,12,7.66,38,38,0,0,1,8.28,11.64,34.07,34.07,0,0,1,3.13,14.53v25.47A37.66,37.66,0,0,1,445,126.88a38.1,38.1,0,0,1-8,12A37.3,37.3,0,0,1,410.06,150Zm17.49-62a17.68,17.68,0,0,0-1.32-6.8,16.46,16.46,0,0,0-3.75-5.54,19,19,0,0,0-5.63-3.76,17.19,17.19,0,0,0-7-1.4A17.37,17.37,0,0,0,403,71.8a18.58,18.58,0,0,0-5.47,3.51,16.22,16.22,0,0,0-3.74,5.32,15.76,15.76,0,0,0-1.41,6.56v25a15.56,15.56,0,0,0,1.17,6.79,16.12,16.12,0,0,0,3.75,5.55,19,19,0,0,0,5.63,3.75,17.81,17.81,0,0,0,7.26,1.41,16.51,16.51,0,0,0,6.56-1.33,18.35,18.35,0,0,0,5.47-3.52,16.1,16.1,0,0,0,3.75-5.31A15.76,15.76,0,0,0,427.4,113Z"/><path class="cls-1" d="M526.15,50.16a38.56,38.56,0,0,1,14.37,2.73,37,37,0,0,1,12,7.66,38,38,0,0,1,8.28,11.64A33.93,33.93,0,0,1,564,86.72v52.65a9.75,9.75,0,0,1-2.89,7,10.07,10.07,0,0,1-7.11,3.12,10.55,10.55,0,0,1-7.27-2.73,8.93,8.93,0,0,1-3-7V121.56H508.8v17.81a9.63,9.63,0,0,1-3.12,7.11,10,10,0,0,1-7.19,3.05,10.46,10.46,0,0,1-7.19-2.81,8.92,8.92,0,0,1-3.12-6.88V88a39.48,39.48,0,0,1,3.05-14.69,37.9,37.9,0,0,1,8-12,37.34,37.34,0,0,1,27-11.09ZM543.65,88a17.69,17.69,0,0,0-1.33-6.8,16.46,16.46,0,0,0-3.75-5.54,19,19,0,0,0-5.63-3.76,17.19,17.19,0,0,0-7-1.4,16.51,16.51,0,0,0-6.56,1.33A18.32,18.32,0,0,0,514,75.31a16.39,16.39,0,0,0-3.75,5.32,15.76,15.76,0,0,0-1.41,6.56v14.06h34.85Z"/><path class="cls-1" d="M642.86,50.63a38.57,38.57,0,0,1,14.38,2.73,37,37,0,0,1,12,7.66,38,38,0,0,1,8.28,11.64,33.93,33.93,0,0,1,3.13,14.53v52.65a9.79,9.79,0,0,1-2.89,7,10.07,10.07,0,0,1-7.11,3.12,10.53,10.53,0,0,1-7.27-2.73,9,9,0,0,1-3-7V88.44a17.68,17.68,0,0,0-1.32-6.8,16.6,16.6,0,0,0-3.75-5.55,19.11,19.11,0,0,0-5.63-3.75,17.19,17.19,0,0,0-6.95-1.4,16.51,16.51,0,0,0-6.56,1.33,18.32,18.32,0,0,0-5.47,3.51,16.31,16.31,0,0,0-3.75,5.31,15.84,15.84,0,0,0-1.41,6.57v52.18A9.63,9.63,0,0,1,622.4,147a10,10,0,0,1-7.19,3.05,10.45,10.45,0,0,1-7.19-2.81,8.92,8.92,0,0,1-3.12-6.88V88.44a39.47,39.47,0,0,1,3-14.69,38.1,38.1,0,0,1,8-12,37.19,37.19,0,0,1,27-11.09Z"/><path class="cls-2" d="M733.65,50h34.84a29.52,29.52,0,0,1,11.72,2.34,35.59,35.59,0,0,1,9.53,5.94,25.3,25.3,0,0,1,6.41,9,28.89,28.89,0,0,1,2.34,11.64,29.79,29.79,0,0,1-2,10.93,32.09,32.09,0,0,1-5.39,9.07,29.79,29.79,0,0,1,7.34,19.68,34.2,34.2,0,0,1-2.34,12.35,28.71,28.71,0,0,1-6.41,10.15,31.37,31.37,0,0,1-9.53,6.49A28.73,28.73,0,0,1,768.49,150H732.86a11.85,11.85,0,0,1-7.65-3,10.49,10.49,0,0,1-3-7.5V60.31a8.12,8.12,0,0,1,1.25-4.37,10.77,10.77,0,0,1,2-2.81A9.66,9.66,0,0,1,731.93,50Zm34.84,39.06a9.2,9.2,0,0,0,6.72-2.81A9.36,9.36,0,0,0,778,79.38a9,9,0,0,0-2.81-6.65A9.33,9.33,0,0,0,768.49,70H742.86V89.06Zm0,40.16a9.3,9.3,0,0,0,6.72-2.74c1.87-1.82,2.81-4.6,2.81-8.36s-.94-6.53-2.81-8.35a9.3,9.3,0,0,0-6.72-2.74H742.86v22.19Z"/><path class="cls-2" d="M877.08,50.16a38.56,38.56,0,0,1,14.37,2.73,37.05,37.05,0,0,1,12,7.66,38.38,38.38,0,0,1,8.28,11.64,34.07,34.07,0,0,1,3.12,14.53v52.65a9.75,9.75,0,0,1-2.89,7,10.07,10.07,0,0,1-7.11,3.12,10.51,10.51,0,0,1-7.26-2.73,8.94,8.94,0,0,1-3-7V121.56H859.74v17.81a9.64,9.64,0,0,1-3.13,7.11,10,10,0,0,1-7.19,3.05,10.42,10.42,0,0,1-7.18-2.81,8.9,8.9,0,0,1-3.13-6.88V88a39.48,39.48,0,0,1,3-14.69,37.76,37.76,0,0,1,8-12,37.3,37.3,0,0,1,27-11.09ZM894.58,88a17.5,17.5,0,0,0-1.33-6.8,16.18,16.18,0,0,0-3.75-5.54,18.9,18.9,0,0,0-5.62-3.76,17.27,17.27,0,0,0-7-1.4,16.51,16.51,0,0,0-6.56,1.33,18.58,18.58,0,0,0-5.47,3.51,16.39,16.39,0,0,0-3.75,5.32,15.91,15.91,0,0,0-1.4,6.56v14.06h34.84Z"/><path class="cls-2" d="M985.36,71.25A8.37,8.37,0,0,0,979,74a10.11,10.11,0,0,0-2.73,6.8A9,9,0,0,0,979,87a8.61,8.61,0,0,0,6.33,2.58H996a27.65,27.65,0,0,1,11.17,2.35,31.68,31.68,0,0,1,16.33,16.17,28.48,28.48,0,0,1,2.5,11.79,28.94,28.94,0,0,1-2.35,11.57,30.26,30.26,0,0,1-6.4,9.53,31.17,31.17,0,0,1-9.53,6.48A30.41,30.41,0,0,1,996,150H968.17a10.22,10.22,0,0,1-7.65-3.05,10.41,10.41,0,0,1-3-7.58,10.53,10.53,0,0,1,10.62-10.46H996a9.07,9.07,0,0,0,6.4-2.66,8.86,8.86,0,0,0,.08-12.89,9.55,9.55,0,0,0-6.33-2.73H985.36a30.86,30.86,0,0,1-11.4-2.5,31.86,31.86,0,0,1-9.61-6.33,30.41,30.41,0,0,1-6.64-9.46,28.83,28.83,0,0,1-.16-23.12A31.2,31.2,0,0,1,964,59.53a33.3,33.3,0,0,1,9.61-6.8,27.27,27.27,0,0,1,11.72-2.57h27.81a9.66,9.66,0,0,1,7.19,3,11.64,11.64,0,0,1,3.28,7.58,10.16,10.16,0,0,1-10.47,10.47Z"/><path class="cls-2" d="M1122.08,128.91a10,10,0,0,1,7.42,3.12,10.51,10.51,0,0,1-7.42,18h-44.69a10.25,10.25,0,0,1-7.26-3.05,10,10,0,0,1-3.21-7.58V60.78a10.65,10.65,0,0,1,3-7.34,9.67,9.67,0,0,1,7.5-3.28h44.69a10,10,0,0,1,7.42,3.12,10.39,10.39,0,0,1,3,7.5,10,10,0,0,1-3,7.5,10.24,10.24,0,0,1-7.42,3H1087.7V89.06h23.91a10,10,0,0,1,7.34,3.13,10.2,10.2,0,0,1,3.13,7.5,9.94,9.94,0,0,1-3.13,7.42,10.18,10.18,0,0,1-7.34,3H1087.7v18.75Z"/><path class="cls-2" d="M182.33,87c7-6.46,11.74-15.54,11.63-25a47.4,47.4,0,0,0-1-9.13,34,34,0,0,0-10.84-18.75,42.53,42.53,0,0,0-9.79-6.28c-4.66-2.21-9.39-2.39-14.46-2.6-4.56-.19-9.11-.25-13.67-.26h-.42c-13.11-.06-26.21,0-39.32,0a11.08,11.08,0,0,0-3.07.46,9.39,9.39,0,0,0-4.11,15.65,9.87,9.87,0,0,0,7.51,2.94q25.64,0,51.28,0a21.69,21.69,0,0,1,8.18,1.18,16.79,16.79,0,0,1,10.48,15.91,16.62,16.62,0,0,1-10.9,15c-2.61.94-5.29.86-8,.86q-24.87,0-49.73,0c-.69,0-1.39,0-2.08,0a9.94,9.94,0,0,0-9,6.76,10.36,10.36,0,0,0,0,6.36,9.94,9.94,0,0,0,9,6.76c.69,0,1.39,0,2.08,0Q131,97,155.9,97c2.68,0,5.36-.08,8,.86a16.56,16.56,0,0,1,.42,31,21.89,21.89,0,0,1-8.18,1.17q-25.63,0-51.28,0a9.91,9.91,0,0,0-7.51,3,9.4,9.4,0,0,0,4.11,15.65,11.46,11.46,0,0,0,3.07.45c13.11,0,26.21.06,39.32,0h.42c4.56,0,9.11-.08,13.67-.27,5.07-.21,9.8-.39,14.46-2.6a42.83,42.83,0,0,0,9.79-6.27A34,34,0,0,0,193,121.13a47.38,47.38,0,0,0,1-9.12C194.07,102.57,189.35,93.49,182.33,87Z"/><path class="cls-1" d="M191.25,158.86a9.9,9.9,0,0,0-7.51-2.94c-17.1,0-61.35,0-78.44,0a21.75,21.75,0,0,1-8.18-1.18,16.77,16.77,0,0,1-10.47-15.91V34.63a9.6,9.6,0,0,0-9.6-9.6h0a9.6,9.6,0,0,0-9.6,9.6V138.84h0a46.52,46.52,0,0,0,.93,8.23,34,34,0,0,0,10.84,18.75,42.38,42.38,0,0,0,9.8,6.28c4.65,2.21,9.38,2.39,14.45,2.6,4.56.19,9.12.25,13.67.26h.43c13.1.06,53.35,0,66.46,0a11.08,11.08,0,0,0,3.07-.46A9.4,9.4,0,0,0,191.25,158.86Z"/></svg>