<svg id="Layer_1" data-name="Layer 1" xmlns="http://www.w3.org/2000/svg" viewBox="0 0 100 100"><defs><style>.cls-1{fill:#163955;}.cls-2{fill:#f19b1f;}</style></defs><title>No Fees-s</title><path class="cls-1" d="M25.32,66.45h5.49a1.38,1.38,0,0,1,1.37,1.37h2.74a4.12,4.12,0,0,0-4.11-4.11H29.44V62.34H26.69v1.37H25.32a4.11,4.11,0,0,0-4.11,4.11v1.37a4.12,4.12,0,0,0,4.11,4.12h5.49a1.37,1.37,0,0,1,1.37,1.37v1.37a1.37,1.37,0,0,1-1.37,1.37H25.32A1.38,1.38,0,0,1,24,76.05H21.21a4.11,4.11,0,0,0,4.11,4.11h1.37v1.37h2.75V80.16h1.37a4.12,4.12,0,0,0,4.11-4.11V74.68a4.12,4.12,0,0,0-4.11-4.12H25.32A1.37,1.37,0,0,1,24,69.19V67.82A1.38,1.38,0,0,1,25.32,66.45Z"/><path class="cls-1" d="M28.06,51.37A20.57,20.57,0,1,0,48.63,71.94,20.59,20.59,0,0,0,28.06,51.37Zm0,38.39A17.83,17.83,0,1,1,45.89,71.94,17.85,17.85,0,0,1,28.06,89.76Z"/><path class="cls-1" d="M28.06,59.6a12.39,12.39,0,0,1,7.81,2.78l1.74-2.12A15.08,15.08,0,0,0,16.39,81.48l2.12-1.74A12.34,12.34,0,0,1,28.06,59.6Z"/><path class="cls-1" d="M39.74,62.39l-2.12,1.74A12.34,12.34,0,0,1,20.26,81.49l-1.74,2.12A15.08,15.08,0,0,0,39.74,62.39Z"/><path class="cls-1" d="M45.89,45.43v8.68h2.74V45.82c.45,0,.91.07,1.37.07s.92,0,1.37-.07v8.29h2.74V45.43a19.19,19.19,0,1,0-8.22,0ZM50,10.24A16.46,16.46,0,1,1,33.55,26.69,16.47,16.47,0,0,1,50,10.24Z"/><path class="cls-1" d="M19.34,63.21a12.35,12.35,0,0,1,7.49-3.55l-.27-2.73a15.08,15.08,0,0,0,0,30l.27-2.73a12.34,12.34,0,0,1-7.49-21Z"/><path class="cls-1" d="M29.57,56.93l-.27,2.73a12.34,12.34,0,0,1,0,24.55l.27,2.73a15.08,15.08,0,0,0,0-30Z"/><path class="cls-1" d="M89.76,81.53V76.05H92.5V67.82H87V65.08h2.74V56.85H48.63v8.23h2.74v11h2.74v2.74H47.26V87h4.11V92.5H92.5V84.27H84.27V81.53Zm0-11v2.75H54.11V70.56H89.76ZM54.11,67.82V65.08H84.27v2.74H54.11Zm-2.74-5.48V59.6H87v2.74H51.37ZM50,84.27V81.53H81.53v2.74H50ZM87,87h2.74v2.74H54.11V87H87Zm-5.49-8.23H56.85V76.05H87v2.74H81.53Z"/><path class="cls-2" d="M50,13A13.71,13.71,0,1,0,63.71,26.69,13.73,13.73,0,0,0,50,13ZM39,26.69a11,11,0,0,1,11-11A10.84,10.84,0,0,1,56.71,18L41.35,33.41A10.9,10.9,0,0,1,39,26.69Zm11,11a11,11,0,0,1-6.72-2.31L58.65,20A10.87,10.87,0,0,1,61,26.69,11,11,0,0,1,50,37.66Z"/></svg>