<svg id="Layer_1" data-name="Layer 1" xmlns="http://www.w3.org/2000/svg" viewBox="0 0 100 100"><defs><style>.cls-1{fill:#163955;}.cls-2{fill:#fefefe;}.cls-3{fill:#f19b1f;}.cls-4,.cls-5{fill:none;stroke:#f19b1f;stroke-miterlimit:10;}.cls-4{stroke-width:1.99px;}.cls-5{stroke-width:1.9px;}</style></defs><title>Peer to Peer</title><path class="cls-1" d="M23.3,52c-5.44,0-10.87,0-16.31,0-.8,0-.92-.16-.69-.93.89-3,1.7-6,2.56-9A10.7,10.7,0,0,1,19.58,34h7.87a10.48,10.48,0,0,1,10,7.32c1,3.3,2,6.64,3,10,.22.71-.08.74-.65.74Z"/><path class="cls-1" d="M76.61,86.92c-5.44,0-10.87,0-16.31,0-.72,0-.9-.08-.67-.85.95-3.11,1.79-6.24,2.71-9.35a10.54,10.54,0,0,1,10.09-7.64q4.27-.06,8.53,0a10.42,10.42,0,0,1,9.87,7.29c1,3.27,1.91,6.58,2.9,9.87.26.84-.27.68-.72.68Z"/><path class="cls-1" d="M13.68,23.06a10,10,0,1,1,10,10A10,10,0,0,1,13.68,23.06Zm10-7.95a8,8,0,1,0,8,7.88A8,8,0,0,0,23.68,15.11Z"/><path class="cls-2" d="M23.68,15.11a8,8,0,1,1-7.95,8A8,8,0,0,1,23.68,15.11ZM22.44,29.88c.07.15.2.11.31.11a6.75,6.75,0,0,0,2.61-.12,7.06,7.06,0,0,0,5.24-8,7,7,0,0,0-7.55-5.74c-.22,0-.44,0-.65,0A6.84,6.84,0,0,0,17,21,6.66,6.66,0,0,0,18.76,28a5.75,5.75,0,0,0,3.7,1.86Z"/><path class="cls-3" d="M23.05,16.12a7,7,0,0,1,7.55,5.74,7.06,7.06,0,0,1-5.24,8,6.75,6.75,0,0,1-2.61.12l-.31-.11h0a2.48,2.48,0,0,0-.31-.18A7.19,7.19,0,0,1,19.5,18.54,8.42,8.42,0,0,1,23.05,16.12Z"/><path class="cls-1" d="M23.05,16.12a8.42,8.42,0,0,0-3.55,2.42,7.19,7.19,0,0,0,2.65,11.17,2.48,2.48,0,0,1,.31.18A5.75,5.75,0,0,1,18.76,28,6.66,6.66,0,0,1,17,21a6.84,6.84,0,0,1,5.39-4.81C22.61,16.12,22.83,16.14,23.05,16.12Z"/><path class="cls-1" d="M76.65,47.47a10,10,0,1,1-10,10A10,10,0,0,1,76.65,47.47Zm0,18a8,8,0,1,0-7.93-8A7.95,7.95,0,0,0,76.61,65.42Z"/><path class="cls-2" d="M76.61,65.42a8,8,0,1,1,8-7.91A8,8,0,0,1,76.61,65.42Zm-.88-14.86a4.29,4.29,0,0,0-.72.08A7,7,0,0,0,70,59.53c.83,2.66,3.38,4.78,5.81,4.84a1.1,1.1,0,0,0,.64.12,7.09,7.09,0,0,0,6.75-4.33,7,7,0,0,0-1.67-7.78A6.52,6.52,0,0,0,75.73,50.56Z"/><path class="cls-3" d="M75.73,50.56a6.52,6.52,0,0,1,5.75,1.82,7,7,0,0,1,1.67,7.78,7.09,7.09,0,0,1-6.75,4.33,1.1,1.1,0,0,1-.64-.12l-.45-.21a7.2,7.2,0,0,1-3.16-10.84A8,8,0,0,1,75.73,50.56Z"/><path class="cls-1" d="M75.73,50.56a8,8,0,0,0-3.58,2.76,7.2,7.2,0,0,0,3.16,10.84l.45.21c-2.43-.06-5-2.18-5.81-4.84A7,7,0,0,1,75,50.64,4.29,4.29,0,0,1,75.73,50.56Z"/><polyline class="cls-4" points="23.3 57.49 23.3 84.27 53.91 84.27"/><polygon class="cls-3" points="15.16 64.08 16.62 65.44 23.29 58.26 29.97 65.44 31.43 64.08 23.29 55.34 15.16 64.08"/><polyline class="cls-5" points="76.65 41.13 76.65 22.25 38.01 22.25"/><polygon class="cls-3" points="84.42 34.84 83.03 33.54 76.66 40.4 70.28 33.54 68.88 34.84 76.66 43.19 84.42 34.84"/></svg>