<svg id="Layer_1" data-name="Layer 1" xmlns="http://www.w3.org/2000/svg" viewBox="0 0 100 100"><defs><style>.cls-1{fill:none;stroke:#f19b1f;stroke-linecap:round;stroke-miterlimit:10;stroke-width:2.8px;}.cls-2{fill:#163955;}</style></defs><title>Peer to Peer-s</title><polyline class="cls-1" points="23.3 59.48 23.3 80.89 53.91 80.89"/><polyline class="cls-1" points="14.77 66.37 23.3 57.84 31.82 66.37"/><polyline class="cls-1" points="76.65 40.56 76.65 22.25 40.51 22.25"/><polyline class="cls-1" points="85.18 33.67 76.65 42.19 68.13 33.67"/><path class="cls-2" d="M76.65,50.27a7.2,7.2,0,1,1-7.2,7.2,7.21,7.21,0,0,1,7.2-7.2m0-2.8a10,10,0,1,0,10,10,10,10,0,0,0-10-10Z"/><path class="cls-2" d="M76.61,86.92c-5.44,0-10.87,0-16.31,0-.72,0-.9-.08-.67-.85.95-3.11,1.79-6.24,2.71-9.35a10.54,10.54,0,0,1,10.09-7.64q4.27-.06,8.53,0a10.42,10.42,0,0,1,9.87,7.29c1,3.27,1.91,6.58,2.9,9.87.26.84-.27.68-.72.68Z"/><path class="cls-2" d="M23.34,15.39a7.2,7.2,0,1,1-7.2,7.2,7.21,7.21,0,0,1,7.2-7.2m0-2.8a10,10,0,1,0,10,10,10,10,0,0,0-10-10Z"/><path class="cls-2" d="M23.3,52c-5.44,0-10.88,0-16.31,0-.72,0-.91-.08-.67-.85C7.26,48.1,8.11,45,9,41.86a10.55,10.55,0,0,1,10.09-7.65c2.84,0,5.69,0,8.53,0a10.39,10.39,0,0,1,9.86,7.28c1,3.27,1.92,6.59,2.91,9.87.26.85-.27.68-.72.68Z"/></svg>