<svg id="Layer_1" data-name="Layer 1" xmlns="http://www.w3.org/2000/svg" viewBox="0 0 100 100"><defs><style>.cls-1{fill:#163955;}.cls-2{fill:#f19b1f;}</style></defs><title>Transparency</title><path class="cls-1" d="M88.83,70V29.37H28.52c0,.37-.08.74-.08,1.11,0,3.34,0,6.69,0,10a3.06,3.06,0,1,1-6.1.09c0-4.24,0-8.48,0-12.71,0-3.68,0-7.35,0-11a6.07,6.07,0,0,1,4.48-6,8.92,8.92,0,0,1,2.3-.26H88.69A6.18,6.18,0,0,1,95,17c0,8.84,0,17.68,0,26.51,0,8.48,0,17,0,25.43a10.38,10.38,0,0,1-.44,3.25,6.05,6.05,0,0,1-6.07,4c-5.85,0-11.7,0-17.55,0s-11.53,0-17.29,0a6.42,6.42,0,0,1-2-.26A3.06,3.06,0,0,1,52.84,70h36ZM31.16,23.1A3.13,3.13,0,0,0,34.33,20a3.14,3.14,0,1,0-3.17,3.08Zm9.34,0A3.15,3.15,0,1,0,37.35,20,3.13,3.13,0,0,0,40.5,23.1Zm6.13-3.21a3.12,3.12,0,0,0,3.13,3.22,3.16,3.16,0,1,0-3.13-3.22Z"/><path class="cls-2" d="M29.51,64.65a5.46,5.46,0,0,0-4.37-2C23,62.68,21,63.3,21,65.11s2,2,4.21,2.28c3.78.46,7.81,1.13,7.81,5.68,0,3.49-2.92,5.46-6.13,5.69v2.59H23.64V78.89c-2.89-.26-5.58-1.58-6.8-4.42l3.05-1.29c.7,1.65,3,2.71,5.15,2.71,2.32,0,4.47-.8,4.47-2.82,0-1.7-2.15-2.32-4.55-2.61-3.7-.41-7.32-1.06-7.32-5.35,0-3.38,3-4.93,6-5.3V57.57h3.28v2.24c2.2.34,4.22,1.17,5.38,3.55Z"/><polygon class="cls-1" points="74.48 37.52 82.4 45.44 74.48 53.37 71.28 50.17 73.75 47.7 61.86 47.7 61.86 43.18 73.75 43.18 71.28 40.71 74.48 37.52"/><polygon class="cls-1" points="54.72 52.22 66.38 52.22 66.38 56.74 54.72 56.74 57.19 59.21 53.99 62.41 46.07 54.48 53.99 46.56 57.19 49.75 54.72 52.22"/><path class="cls-1" d="M25,53.51A15.95,15.95,0,1,1,9,69.46,16,16,0,0,1,25,53.51m0-4A19.95,19.95,0,1,0,44.89,69.46,19.95,19.95,0,0,0,25,49.51Z"/></svg>