<svg id="Layer_1" data-name="Layer 1" xmlns="http://www.w3.org/2000/svg" viewBox="0 0 100 100"><defs><style>.cls-1{fill:#163955;}.cls-2{fill:#f19b1f;}</style></defs><title>Transparency-s</title><polygon class="cls-1" points="61.1 58.91 61.1 55.9 48.37 55.9 51.59 52.68 49.46 50.54 42.59 57.41 49.46 64.27 51.59 62.13 48.37 58.91 61.1 58.91"/><polygon class="cls-1" points="76.81 48.37 69.94 41.5 67.81 43.64 71.03 46.86 58.08 46.86 58.08 49.88 71.03 49.88 67.81 53.1 69.94 55.23 76.81 48.37"/><path class="cls-1" d="M88.45,30.84c0-3.66,0-3.95,0-7.91a6.19,6.19,0,0,0-6.3-6.39c-19.85,0-34.7,0-54.55,0a8.87,8.87,0,0,0-2.3.26,6.06,6.06,0,0,0-4.48,6c0,3.67,0,3.34,0,7v1h0V53.7a17.25,17.25,0,0,1,2.8-.27V33.64H85.66V67a3.88,3.88,0,0,1-3.88,3.87H41a17.14,17.14,0,0,1-.27,2.8h41A6.68,6.68,0,0,0,88.46,67V30.84ZM27.62,27A3.16,3.16,0,1,1,30.79,24,3.15,3.15,0,0,1,27.62,27ZM37,27a3.15,3.15,0,1,1,3.11-3.15A3.16,3.16,0,0,1,37,27Zm9.26,0a3.16,3.16,0,0,1,0-6.32,3.16,3.16,0,0,1,0,6.32Z"/><path class="cls-2" d="M28.27,67.45A1.22,1.22,0,0,1,27,67.29a4.91,4.91,0,0,0-3-1c-1.72,0-3.29.49-3.29,1.94S22.3,69.82,24,70c3,.37,6.23.91,6.23,4.54,0,2.79-2.33,4.36-4.89,4.55v.75a1.31,1.31,0,0,1-1.31,1.31h0a1.31,1.31,0,0,1-1.31-1.31v-.65a6.65,6.65,0,0,1-4.57-2.14,1.26,1.26,0,0,1,.5-2l.11,0a1.27,1.27,0,0,1,1.43.31,5,5,0,0,0,3.64,1.45c1.86,0,3.58-.64,3.58-2.25,0-1.36-1.72-1.85-3.64-2.08-2.95-.33-5.84-.85-5.84-4.27,0-2.71,2.4-3.95,4.79-4.23v-.87a1.31,1.31,0,0,1,1.31-1.31h0a1.31,1.31,0,0,1,1.31,1.31V64a5.79,5.79,0,0,1,3.26,1.4,1.27,1.27,0,0,1-.36,2.07Z"/><path class="cls-1" d="M23.79,57.55A13.13,13.13,0,1,1,10.66,70.67,13.14,13.14,0,0,1,23.79,57.55m0-2.8A15.93,15.93,0,1,0,39.72,70.67,15.93,15.93,0,0,0,23.79,54.75Z"/></svg>